<svg width="310" height="32" xmlns="http://www.w3.org/2000/svg" xmlns:xlink="http://www.w3.org/1999/xlink"><defs><path id="a" d="M.116.508h53.843v31.024H.116z"/><path id="c" d="M0 32h309.977V.508H0z"/><path id="e" d="M0 32h309.977V.508H0z"/><path id="g" d="M0 32h309.977V.508H0z"/><path id="i" d="M0 32h309.977V.508H0z"/><path id="k" d="M0 32h309.977V.508H0z"/><path id="m" d="M0 32h309.977V.508H0z"/><path id="o" d="M0 32h309.977V.508H0z"/><path id="q" d="M0 32h309.977V.508H0z"/><path id="s" d="M0 32h309.977V.508H0z"/><path id="u" d="M0 32h309.977V.508H0z"/><path id="w" d="M0 32h309.977V.508H0z"/><path id="y" d="M0 32h309.977V.508H0z"/><path id="A" d="M0 32h309.977V.508H0z"/><path id="C" d="M0 32h309.977V.508H0z"/><path id="E" d="M0 32h309.977V.508H0z"/><path id="G" d="M0 32h309.977V.508H0z"/><path d="M.189 3.439c0 1.884 1.426 3.292 3.33 3.292 1.855 0 3.32-1.427 3.32-3.256C6.84 1.657 5.386.23 3.52.23 1.68.23.189 1.665.189 3.44" id="I"/><path id="K" d="M0 32.214h309.977V.512H0z"/><path id="M" d="M0 32.214h309.977V.512H0z"/><path id="O" d="M0 32.214h309.977V.512H0z"/><path id="Q" d="M0 32.214h309.977V.512H0z"/><path id="S" d="M0 32.214h309.977V.512H0z"/><path id="U" d="M0 32.214h309.977V.512H0z"/><path id="W" d="M0 32.214h309.977V.512H0z"/><path id="Y" d="M0 32.214h309.977V.512H0z"/><path id="aa" d="M0 32.214h309.977V.512H0z"/><path id="ac" d="M0 32.214h309.977V.512H0z"/><path id="ae" d="M0 32.214h309.977V.512H0z"/><path id="ag" d="M0 32.214h309.977V.512H0z"/><path id="ai" d="M0 32.214h309.977V.512H0z"/><path id="ak" d="M0 32.214h309.977V.512H0z"/><path id="am" d="M0 32.214h309.977V.512H0z"/><path id="ao" d="M0 32.214h309.977V.512H0z"/><path id="aq" d="M0 32.214h309.977V.512H0z"/><path id="as" d="M0 32.214h309.977V.512H0z"/><path id="au" d="M0 32.214h309.977V.512H0z"/><path id="aw" d="M0 32.214h309.977V.512H0z"/><path id="ay" d="M0 32.214h309.977V.512H0z"/><path id="aA" d="M0 32.214h309.977V.512H0z"/><path id="aC" d="M0 32.214h309.977V.512H0z"/><path id="aE" d="M0 32.214h309.977V.512H0z"/><radialGradient cx="50.002%" cy="49.994%" fx="50.002%" fy="49.994%" r="49.544%" gradientTransform="matrix(.99788 0 0 1 .001 0)" id="aG"><stop stop-color="#FEEFE1" offset="0%"/><stop stop-color="#FEEFE1" offset=".562%"/><stop stop-color="#FEEFE1" offset="26.718%"/><stop stop-color="#F46F1B" offset="100%"/></radialGradient></defs><g fill="none" fill-rule="evenodd"><path d="M54.209 30.334c0 .92-.81 1.666-1.808 1.666H1.806C.81 32 0 31.254 0 30.334V2.431C0 1.511.81.765 1.806.765h50.595c.998 0 1.808.746 1.808 1.666v27.903z" fill="#FFF"/><path fill="#4A72B2" d="M23.688 22.3h-3.136l1.96-11.828h3.136zm-5.774-11.828l-2.99 8.136-.354-1.752-1.055-5.318s-.128-1.066-1.487-1.066H7.084l-.057.2s1.511.31 3.28 1.353L13.03 22.3h3.268l4.99-11.828h-3.375z"/><path d="M39.132 18.117l1.647-4.427.928 4.427h-2.575zm3.45 4.183h2.88l-2.51-11.828H40.43c-1.165 0-1.449.881-1.449.881L34.305 22.3h3.27l.652-1.756h3.987l.368 1.756z" fill="#4A72B2" fill-rule="nonzero"/><path d="M34.55 13.317l.447-2.54s-1.381-.516-2.82-.516c-1.557 0-5.253.668-5.253 3.916 0 3.056 4.339 3.094 4.339 4.698 0 1.605-3.892 1.319-5.175.306l-.468 2.655s1.4.668 3.54.668c2.141 0 5.37-1.088 5.37-4.049 0-3.075-4.377-3.362-4.377-4.699 0-1.337 3.055-1.166 4.397-.44" fill="#4A72B2"/><path d="M14.567 16.865l-1.053-5.31s-.127-1.064-1.485-1.064H7.094l-.058.2s2.372.483 4.646 2.292c2.175 1.728 2.885 3.882 2.885 3.882" fill="#F9A533"/><path d="M118.317 30.11c0 .915-.805 1.656-1.797 1.656h-50.3c-.991 0-1.795-.741-1.795-1.656V2.37c0-.915.804-1.657 1.796-1.657h50.3c.99 0 1.796.742 1.796 1.657v27.74z" fill="#FFF"/><path fill="#FBB231" d="M98.867 26.62l.546-.014.539-.037.527-.067.524-.092.511-.115.503-.14.492-.165.48-.186.471-.209.457-.228.442-.252.432-.269.414-.291.399-.308.385-.326.367-.346.354-.362.331-.378.315-.392.295-.406.274-.424.257-.434.231-.448.214-.463.189-.472.168-.484.144-.493.116-.501.093-.514.068-.519.04-.529.013-.535-.013-.532-.04-.526-.068-.518-.093-.508-.116-.5-.144-.491-.168-.483-.19-.47-.213-.458-.23-.448-.258-.431-.274-.423-.295-.407-.315-.389-.331-.377-.354-.362-.367-.343-.385-.325-.4-.309-.413-.29-.432-.27-.442-.248-.457-.228-.47-.21-.481-.185-.492-.165-.503-.14-.51-.116-.525-.09-.527-.067-.54-.04-.545-.013-.542.013-.538.04-.528.067-.521.09-.51.116-.504.14-.488.165-.481.185-.467.21-.453.228-.442.249-.428.269-.413.29-.4.31-.382.324-.367.343-.35.362-.331.377-.314.39-.292.406-.276.423-.252.43-.236.45-.21.458-.19.47-.164.482-.141.49-.119.501-.093.508-.067.518-.04.526-.013.532.014.535.039.53.067.518.093.514.119.501.141.493.165.484.19.472.209.463.236.448.252.434.276.424.292.406.314.392.331.378.35.362.367.346.381.326.401.308.413.291.428.269.442.252.453.228.467.21.481.185.488.165.504.14.51.115.521.092.528.067.538.037z"/><path fill="#EC1C2E" d="M84.724 26.62l.541-.014.538-.037.529-.067.52-.092.51-.115.502-.14.49-.165.482-.186.466-.209.454-.228.441-.252.429-.269.414-.291.399-.308.381-.326.368-.346.35-.362.332-.378.312-.392.293-.406.274-.424.253-.434.236-.448.21-.463.19-.472.164-.484.141-.493.119-.501.092-.514.068-.519.04-.529.013-.535-.014-.532-.039-.526-.068-.518-.092-.508-.119-.5-.141-.491-.165-.483-.189-.47-.21-.458-.236-.448-.253-.431-.274-.423-.293-.407-.312-.389-.333-.377-.35-.362-.367-.343-.381-.325-.4-.309-.413-.29-.429-.27-.44-.248-.455-.228-.466-.21-.483-.185-.489-.165-.501-.14-.51-.116-.521-.09-.529-.067-.538-.04-.541-.013-.546.013-.54.04-.526.067-.526.09-.51.116-.501.14-.493.165-.481.185-.47.21-.457.228-.442.249-.432.269-.415.29-.399.31-.384.324-.367.343-.354.362-.332.377-.313.39-.296.406-.275.423-.257.43-.231.45-.215.458-.188.47-.168.482-.143.49-.118.501-.092.508-.068.518-.04.526-.013.532.014.535.04.53.067.518.092.514.118.501.143.493.168.484.188.472.215.463.23.448.258.434.275.424.296.406.313.392.332.378.354.362.367.346.384.326.4.308.414.291.432.269.442.252.456.228.47.21.482.185.493.165.502.14.51.115.525.092.527.067.539.037z"/><path fill="#FBB231" d="M90.558 9.84h5.617v-.564h-5.133zm-.842 1.254h6.46v-.565h-6.121zm-.628 1.25h7.088v-.564h-6.838zm-.431 1.254h7.518v-.564h-7.34zm.25 6.058h7.286v-.564h-7.465zm.537 1.253h6.749v-.564h-7.015zm.756 1.251h5.993v-.565H89.84zm1.042 1.253h4.95v-.568H90.74zm-2.838-8.565h7.771v-.564h-7.66zm4.736 3.558h2.963v-.564h-2.857zm.235-1.251h2.728v-.567h-2.621zm-5.167-.567h.77v.568h-.734z"/><path fill="#FFF" d="M86.77 15.905l-.05-.003-.05-.007-.046-.007-.046-.007-.043-.007-.046-.007-.047-.007-.05-.007-.05-.007-.057-.004-.064-.003-.067-.004h-.075l-.082.004-.093.007-.103.007-.072.01-.068.011-.06.021-.054.02-.05.025-.046.028-.036.036-.032.032-.022.038-.018.038-.006.042v.042l.01.046.014.045.03.046.035.045.071.066.086.053.1.045.107.04.114.034.118.038.118.043.113.045.108.06.099.073.09.088.074.109.057.133.036.157.014.19-.014.22-.025.165-.043.143-.057.133-.072.115-.082.102-.092.088-.1.077-.11.066-.114.053-.118.045-.121.036-.125.027-.122.022-.118.01-.117.007-.11.003h-.154l-.143-.003h-.125l-.117-.003-.107-.004-.097-.007-.085-.007-.082-.01-.075-.008-.068-.013-.067-.011-.062-.018-.06-.014-.056-.02-.058-.022-.06-.02.16-.774.032.007.04.01.05.014.06.014.064.014.07.014.08.017.085.015.09.013.092.014.097.01.1.012.103.003.103.004h.104l.103-.004.104-.02.083-.03.063-.037.05-.05.035-.048.028-.057.019-.056.015-.052.006-.101-.033-.089-.06-.07-.089-.06-.107-.052-.125-.052-.138-.049-.14-.056-.142-.063-.136-.073-.125-.091-.114-.109-.09-.133-.063-.158-.031-.188.003-.225.017-.136.025-.13.036-.12.043-.111.057-.105.064-.09.075-.09.089-.076.104-.066.114-.056.129-.052.142-.04.16-.031.175-.025.193-.014.21-.004h.131l.122.004.11.004.1.003.09.007.082.007.07.007.065.007.06.007.05.01.048.008.042.007.035.007.033.004.032.007.028.004z"/><path stroke="#FFF" stroke-width=".051" d="M86.77 15.905h0l-.05-.003-.05-.007-.046-.007-.046-.007-.043-.007-.046-.007-.047-.007-.05-.007-.05-.007-.057-.004-.064-.003-.067-.004h-.075l-.082.004-.093.007-.103.007-.072.01-.068.011-.06.021-.054.02-.05.025-.046.028-.036.036-.032.032-.022.038-.018.038-.006.042v.042l.01.046.014.045.03.046.035.045.071.066.086.053.1.045.107.04.114.034.118.038.118.043.113.045.108.06.099.073.09.088.074.109.057.133.036.157.014.19-.014.22-.025.165-.043.143-.057.133-.072.115-.082.102-.092.088-.1.077-.11.066-.114.053-.118.045-.121.036-.125.027-.122.022-.118.01-.117.007-.11.003h-.154l-.143-.003h-.125l-.117-.003-.107-.004-.097-.007-.085-.007-.082-.01-.075-.008-.068-.013-.067-.011-.062-.018-.06-.014-.056-.02-.058-.022-.06-.02.16-.774.032.007.04.01.05.014.06.014.064.014.07.014.08.017.085.015.09.013.092.014.097.01.1.012.103.003.103.004h.104l.103-.004.104-.02.083-.03.063-.037.05-.05.035-.048.028-.057.019-.056.015-.052.006-.101-.033-.089-.06-.07-.089-.06-.107-.052-.125-.052-.138-.049-.14-.056-.142-.063-.136-.073-.125-.091-.114-.109-.09-.133-.063-.158-.031-.188.003-.225.017-.136.025-.13.036-.12.043-.111.057-.105.064-.09.075-.09.089-.076.104-.066.114-.056.129-.052.142-.04.16-.031.175-.025.193-.014.21-.004h.131l.122.004.11.004.1.003.09.007.082.007.07.007.065.007.06.007.05.01.048.008.042.007.035.007.033.004.032.007.028.004-.182.79"/><path fill="#FFF" d="M87.616 14.25h.987l-.145.847h.595l-.129.791-.627-.018-.342 1.955-.004.07.017.06.036.045.047.038.064.024.072.022.078.013.085.008.078-.004.073-.007.063-.01.058-.014.046-.015.032-.01.021-.007.007-.003-.125.65-.024.019-.025.013-.026.015-.025.013-.024.01-.03.012-.03.01-.033.01-.036.011-.036.006-.042.008-.043.007-.047.007-.053.007-.057.006-.06.007h-.271l-.143-.01-.125-.014-.114-.02-.097-.026-.081-.031-.068-.034-.06-.043-.047-.046-.036-.048-.025-.06-.018-.06-.01-.066-.004-.074v-.076l.01-.08.011-.088z"/><path stroke="#FFF" stroke-width=".051" d="M87.616 14.25h.987l-.145.847h.595l-.129.791-.627-.018-.342 1.955-.004.07.017.06.036.045.047.038.064.024.072.022.078.013.085.008.078-.004.073-.007.063-.01.058-.014.046-.015.032-.01.021-.007.007-.003-.125.65-.024.019-.025.013-.026.015-.025.013-.024.01-.03.012-.03.01-.033.01-.036.011-.036.006-.042.008-.043.007-.047.007-.053.007-.057.006-.06.007h-.271l-.143-.01-.125-.014-.114-.02-.097-.026-.081-.031-.068-.034-.06-.043-.047-.046-.036-.048-.025-.06-.018-.06-.01-.066-.004-.074v-.076l.01-.08.011-.088.682-3.82"/><path stroke="#FFF" stroke-width=".051" d="M89.84 17.208h0l-.009.06-.004.063.006.066.014.067.026.066.029.064.038.066.043.06.05.06.054.052.057.052.064.041.064.04.072.03.07.026.072.014.094.014.088.01.092.01.094.008.092.003h.097l.093-.003.095-.007.097-.015.097-.017.1-.02.096-.033.1-.038.103-.043.1-.055.103-.06-.143.862-.057.028-.057.028-.057.02-.053.022-.053.018-.058.017-.057.014-.06.01-.065.011-.072.007-.074.007-.082.006-.093.005h-.096l-.11.002h-.118l-.175-.002-.178-.018-.178-.024-.18-.043-.173-.052-.168-.067-.161-.087-.15-.102-.139-.119-.122-.144-.102-.161-.086-.185-.061-.207-.04-.235-.01-.258.018-.287.014-.113.022-.13.028-.135.04-.148.054-.15.063-.151.083-.154.099-.146.114-.142.14-.132.156-.12.179-.104.207-.088.232-.063.256-.041.29-.015.138.004.147.014.145.024.147.035.143.053.138.063.13.084.116.097.108.12.088.14.073.161.049.186.028.209.004.238-.025.266-.053.295-.019.213h-2.599l.164-.69h1.562l.007-.087-.003-.084-.007-.077-.015-.07-.025-.066-.025-.06-.035-.053-.036-.049-.042-.041-.048-.035-.052-.032-.055-.029-.056-.02-.057-.014-.061-.01-.063-.008-.07.004-.063.01-.06.015-.06.02-.062.028-.053.032-.054.039-.046.041-.046.05-.043.051-.04.057-.032.06-.033.063-.024.07-.02.07-.016.073-.143.725"/><path fill="#FFF" d="M98.346 15.307l-.046-.024-.047-.022-.049-.024-.054-.025-.053-.02-.06-.022-.06-.022-.065-.02-.069-.017-.067-.014-.076-.014-.074-.011-.082-.007-.082-.007h-.263l-.094.007-.096.01-.1.018-.1.028-.1.04-.099.048-.101.063-.096.077-.093.09-.089.113-.086.13-.078.153-.074.175-.067.197-.058.224-.021.125-.015.123-.007.122.003.12.011.12.025.11.032.106.04.106.053.094.064.09.075.082.086.072.096.064.11.053.121.044.137.032.046.01.053.011.064.008.072.006.078.007h.171l.09-.007.092-.01.093-.018.09-.024.088-.028.09-.04.082-.044.074-.056.071-.063-.16.935-.022.017-.021.021-.029.025-.032.02-.039.029-.05.024-.057.025-.064.02-.081.025-.093.017-.108.015-.124.014-.139.006-.16.005-.182-.005-.201-.009-.163-.018-.165-.036-.164-.051-.163-.07-.157-.084-.15-.106-.142-.122-.133-.14-.117-.157-.1-.176-.086-.196-.064-.214-.043-.235-.014-.248.007-.273.038-.291.03-.143.032-.14.035-.137.036-.13.04-.122.045-.123.047-.115.05-.109.053-.108.054-.102.06-.098.065-.09.064-.089.07-.083.072-.078.076-.073.08-.07.083-.066.086-.06.09-.056.095-.053.097-.045.1-.042.103-.039.11-.035.111-.028.115-.025.12-.02.121-.018.129-.013.129-.007.135-.005.114.005.112.007.105.01.108.014.1.013.096.022.092.017.086.021.082.021.071.021.069.021.056.02.05.019.043.014.032.014.022.007z"/><path stroke="#FFF" stroke-width=".051" d="M98.346 15.307h0l-.046-.024-.047-.022-.049-.024-.054-.025-.053-.02-.06-.022-.06-.022-.065-.02-.069-.017-.067-.014-.076-.014-.074-.011-.082-.007-.082-.007h-.263l-.094.007-.096.01-.1.018-.1.028-.1.04-.099.048-.101.063-.096.077-.093.09-.089.113-.086.13-.078.153-.074.175-.067.197-.058.224-.021.125-.015.123-.007.122.003.12.011.12.025.11.032.106.04.106.053.094.064.09.075.082.086.072.096.064.11.053.121.044.137.032.046.01.053.011.064.008.072.006.078.007h.171l.09-.007.092-.01.093-.018.09-.024.088-.028.09-.04.082-.044.074-.056.071-.063-.16.935-.022.017-.021.021-.029.025-.032.02-.039.029-.05.024-.057.025-.064.02-.081.025-.093.017-.108.015-.124.014-.139.006-.16.005-.182-.005-.201-.009-.163-.018-.165-.036-.164-.051-.163-.07-.157-.084-.15-.106-.142-.122-.133-.14-.117-.157-.1-.176-.086-.196-.064-.214-.043-.235-.014-.248.007-.273.038-.291.03-.143.032-.14.035-.137.036-.13.04-.122.045-.123.047-.115.05-.109.053-.108.054-.102.06-.098.065-.09.064-.089.07-.083.072-.078.076-.073.08-.07.083-.066.086-.06.09-.056.095-.053.097-.045.1-.042.103-.039.11-.035.111-.028.115-.025.12-.02.121-.018.129-.013.129-.007.135-.005.114.005.112.007.105.01.108.014.1.013.096.022.092.017.086.021.082.021.071.021.069.021.056.02.05.019.043.014.032.014.022.007-.179.97"/><path fill="#FFF" d="M107.126 18.846h-.987l.071-.387v-.036l-.058.07-.06.063-.06.056-.064.05-.066.045-.063.038-.065.031-.068.032-.067.024-.068.018-.068.018-.071.01-.072.011-.067.007-.071.004h-.072l-.185-.015-.17-.039-.157-.059-.144-.08-.128-.103-.114-.117-.1-.13-.086-.147-.07-.159-.058-.164-.04-.17-.028-.18-.01-.178.003-.182.018-.179.032-.178.053-.207.065-.196.074-.179.09-.168.093-.157.106-.14.111-.127.118-.115.124-.102.132-.088.136-.076.135-.06.143-.05.143-.03.143-.021.145-.007.105.003.099.011.093.017.087.025.08.028.072.03.07.04.066.038.056.041.054.047.045.045.044.046.036.045.032.046.028.042.022.042.25-1.376h.97z"/><path stroke="#FFF" stroke-width=".051" d="M107.126 18.846h-.987l.071-.387v-.036l-.058.07-.06.063-.06.056-.064.05-.066.045-.063.038-.065.031-.068.032-.067.024-.068.018-.068.018-.071.01-.072.011-.067.007-.071.004h-.072l-.185-.015-.17-.039-.157-.059-.144-.08-.128-.103-.114-.117-.1-.13-.086-.147-.07-.159-.058-.164-.04-.17-.028-.18-.01-.178.003-.182.018-.179.032-.178.053-.207.065-.196.074-.179.09-.168.093-.157.106-.14.111-.127.118-.115.124-.102.132-.088.136-.076.135-.06.143-.05.143-.03.143-.021.145-.007.105.003.099.011.093.017.087.025.08.028.072.03.07.04.066.038.056.041.054.047.045.045.044.046.036.045.032.046.028.042.022.042.25-1.376h.97l-.807 4.58"/><path fill="#FBB231" d="M105.51 18l.1-.007.094-.021.085-.025.083-.038.074-.042.071-.053.068-.059.06-.064.054-.07.05-.077.046-.08.04-.084.035-.088.03-.09.024-.096.018-.094.017-.098.012-.101v-.096l-.005-.097-.01-.09-.014-.089-.025-.083-.029-.082-.036-.07-.042-.065-.047-.057-.053-.049-.06-.042-.065-.028-.068-.017-.075-.008-.097.008-.088.014-.082.027-.082.035-.072.046-.07.057-.061.059-.061.066-.054.077-.05.08-.046.084-.04.092-.034.094-.03.095-.028.101-.021.101-.02.155.01.169.024.17.046.165.072.145.092.114.118.078z"/><path fill="#FFF" d="M83.61 18.07l-.142.776h-.899l.025-.142.018-.13.014-.098.015-.053-.05.056-.057.057-.067.052-.076.05-.086.048-.09.042-.092.041-.095.035-.104.031-.103.026-.103.021-.108.014-.103.007-.103.003-.1-.01-.097-.014-.126-.032-.113-.035-.1-.046-.09-.052-.077-.056-.072-.063-.056-.066-.051-.07-.042-.074-.036-.077-.029-.077-.02-.077-.015-.08-.012-.081-.007-.078v-.076l.011-.137.023-.13.035-.122.046-.118.057-.113.064-.101.076-.098.085-.088.089-.08.1-.075.103-.066.107-.056.114-.049.118-.039.12-.03.126-.022h.008l.017-.004.025-.003.039-.003.043-.007.05-.004.053-.007.061-.007.06-.007.062-.006.064-.004.057-.007.057-.003.053-.005.05-.003h.121l.087.003.077.005h.078l.065.003.05.003.036.004h.01l.008-.025.02-.063.019-.074.006-.066-.013-.077-.032-.07-.044-.063-.056-.053-.069-.045-.074-.032-.086-.02-.092-.008-.1-.003-.108-.004h-.11l-.114.004-.118.007-.114.01-.114.01-.111.015-.107.014-.103.017-.093.017-.085.018-.079.022-.063.02-.05.025-.04.021.253-.844.08-.032.077-.028.086-.024.086-.018.085-.017.093-.014.092-.014.097-.007.1-.007.102-.003.108-.004h.342l.125.004.124.003.1.007.108.018.111.024.113.032.11.042.109.049.106.059.1.066.088.078.08.084.072.094.053.105.036.113.02.119v.132l-.02.14z"/><path stroke="#FFF" stroke-width=".051" d="M83.61 18.07l-.142.776h-.899l.025-.142.018-.13.014-.098.015-.053-.05.056-.057.057-.067.052-.076.05-.086.048-.09.042-.092.041-.095.035-.104.031-.103.026-.103.021-.108.014-.103.007-.103.003-.1-.01-.097-.014-.126-.032-.113-.035-.1-.046-.09-.052-.077-.056-.072-.063-.056-.066-.051-.07-.042-.074-.036-.077-.029-.077-.02-.077-.015-.08-.012-.081-.007-.078v-.076l.011-.137.023-.13.035-.122.046-.118.057-.113.064-.101.076-.098.085-.088.089-.08.1-.075.103-.066.107-.056.114-.049.118-.039.12-.03.126-.022h.008l.017-.004.025-.003.039-.003.043-.007.05-.004.053-.007.061-.007.06-.007.062-.006.064-.004.057-.007.057-.003.053-.005.05-.003h.121l.087.003.077.005h.078l.065.003.05.003.036.004h.01l.008-.025.02-.063.019-.074.006-.066-.013-.077-.032-.07-.044-.063-.056-.053-.069-.045-.074-.032-.086-.02-.092-.008-.1-.003-.108-.004h-.11l-.114.004-.118.007-.114.01-.114.01-.111.015-.107.014-.103.017-.093.017-.085.018-.079.022-.063.02-.05.025-.04.021.253-.844.08-.032.077-.028.086-.024.086-.018.085-.017.093-.014.092-.014.097-.007.1-.007.102-.003.108-.004h.342l.125.004.124.003.1.007.108.018.111.024.113.032.11.042.109.049.106.059.1.066.088.078.08.084.072.094.053.105.036.113.02.119v.132l-.02.14-.361 1.85"/><path fill="#EC1C2E" d="M82.752 17.155l-.004-.017-.015-.017-.021-.011-.036-.007-.04-.006-.045-.005h-.107l-.058.005-.06.006-.058.007-.056.008-.054.006-.05.01-.043.011-.038.01-.026.007-.028.011-.04.014-.04.017-.045.021-.046.025-.05.025-.047.028-.05.034-.046.035-.043.043-.039.042-.035.045-.025.05-.022.055-.01.056-.004.12.018.094.035.07.047.053.053.035.06.02.057.011.058.004.108-.004.096-.011.092-.014.081-.021.073-.024.067-.032.06-.032.055-.038.046-.035.043-.041.035-.038.029-.043.025-.043.021-.04.018-.04.01-.038.03-.102.024-.115.021-.113z"/><path fill="#FFF" d="M76.107 18.846h-.97l.81-4.597h1.687l.16 2.727 1.166-2.727h1.762l-.828 4.597h-.97l.613-3.434H79.5l-1.452 3.434h-1.095l-.006-.143-.026-.382-.032-.541-.036-.625-.036-.626-.031-.55-.025-.399-.007-.168H76.7z"/><path stroke="#FFF" stroke-width=".051" d="M76.107 18.846h-.97l.81-4.597h1.687l.16 2.727 1.166-2.727h1.762l-.828 4.597h-.97l.613-3.434H79.5l-1.452 3.434h-1.095l-.006-.143-.026-.382-.032-.541-.036-.625-.036-.626-.031-.55-.025-.399-.007-.168H76.7l-.593 3.434"/><path fill="#FFF" d="M101.31 18.07l-.146.776h-.895l.007-.142.004-.127v-.094l.007-.042-.047.053-.054.052-.064.049-.07.05-.076.044-.085.043-.09.041-.089.035-.097.027-.099.03-.1.017-.099.014-.105.007-.099.003-.097-.01-.095-.014-.128-.032-.115-.035-.1-.046-.092-.052-.079-.056-.068-.063-.057-.066-.05-.07-.043-.074-.031-.077-.029-.077-.017-.077-.015-.08-.012-.081-.007-.078v-.076l.007-.137.023-.13.032-.122.046-.118.053-.113.069-.101.074-.098.082-.088.094-.08.095-.075.103-.066.11-.056.111-.049.118-.039.117-.03.122-.022h.007l.019-.004.024-.003.036-.003.046-.007.05-.004.053-.007.058-.007.06-.007.064-.006.06-.004.062-.007.057-.003.05-.005.05-.003h.124l.086.003.082.005h.079l.067.003.058.003.031.004h.016l.006-.025.011-.063.01-.074.007-.066-.015-.077-.027-.07-.047-.063-.054-.053-.063-.045-.076-.032-.078-.02-.085-.008-.1-.003-.107-.004h-.111l-.114.004-.118.007-.114.01-.114.01-.111.015-.107.014-.103.017-.091.017-.087.018-.079.022-.064.02-.05.025-.04.021.251-.844.078-.032.082-.028.082-.024.086-.018.089-.017.089-.014.093-.014.096-.007.1-.007.103-.003.103-.004h.336l.121.004.122.003.099.007.108.018.11.024.114.032.11.042.11.049.109.059.1.066.088.078.083.084.07.094.054.105.04.113.024.119v.132l-.017.14z"/><path fill="#FFF" d="M101.164 18.872l.022-.022.145-.777-.043-.007-.146.778.022-.022v.05l.018-.004.004-.018z"/><path fill="#FFF" d="M100.247 18.846l.022.025h.895v-.049h-.895l.02.024h-.042l-.003.025h.025z"/><path fill="#FFF" d="M100.304 18.454l-.032-.027-.014.056-.004.094v.126l-.008.144h.043l.008-.144.007-.126-.004-.094v-.03l-.031-.026z"/><path fill="#FFF" d="M98.917 18.903l.1.015.096.01.1-.004.104-.006.103-.015.1-.017.099-.028.1-.028.089-.036.093-.041.085-.042.075-.05.075-.05.065-.048.057-.056.047-.053-.036-.027-.047.052-.05.05-.064.048-.068.05-.075.04-.085.044-.086.042-.089.034-.093.028-.099.03-.1.016-.096.014-.104.008-.1.003-.097-.011-.093-.014z"/><path fill="#FFF" d="M98.053 17.842l.004.076.008.078.01.084.014.08.018.078.03.08.032.08.045.075.05.073.057.065.072.068.082.056.092.056.104.044.117.036.129.032.007-.042-.128-.031-.11-.035-.098-.046-.092-.05-.075-.055-.065-.06-.056-.066-.05-.067-.038-.073-.034-.074-.028-.073-.017-.078-.015-.08-.01-.077-.008-.078.004-.076z"/><path fill="#FFF" d="M99.334 16.497l-.124.021-.122.032-.117.038-.115.05-.11.055-.108.07-.095.074-.093.084-.086.087-.075.099-.071.105-.053.115-.047.12-.032.125-.022.132-.01.138h.05l.004-.138.02-.125.033-.119.046-.118.054-.11.064-.098.076-.098.078-.086.091-.078.098-.074.098-.062.112-.057.106-.049.119-.038.113-.032.118-.02z"/><path fill="#FFF" d="M100.069 16.423h-.04l-.05.008-.049.004-.057.002-.061.007-.06.004-.065.007-.06.007-.058.007-.053.007-.05.004-.046.007-.036.003-.028.004-.015.003h-.007v.042h.007l.022-.003.021-.003.036-.004.046-.007.05-.004.053-.007.058-.007.06-.007.064-.007.06-.003.062-.007.057-.004.05-.003h.089zm.481.039l.022-.017h-.014l-.032-.004-.058-.003-.067-.007h-.161l-.086-.007h-.085v.049h.171l.082.006h.146l.058.004.032.004h.014l.02-.017-.02.017.018.003.003-.02z"/><path fill="#FFF" d="M100.586 16.238h-.004l-.003.066-.011.07-.01.063-.008.025.043.007.007-.025.01-.063.012-.077.011-.066h-.005zm-.425-.347v.004l.083.003.074.022.072.03.06.043.05.05.043.058.03.064.014.073h.04l-.013-.08-.027-.078-.051-.066-.058-.057-.067-.048-.079-.032-.082-.02-.089-.01v.002z"/><path fill="#FFF" d="M98.632 16.06l.036.02.035-.017.046-.024.06-.022.08-.02.085-.018.093-.017.104-.018.102-.014.111-.015.114-.01.114-.01.118-.007h.331l.1.003v-.042l-.1-.003-.106-.007h-.111l-.114.007-.118.006-.114.012-.114.01-.11.014-.111.013-.104.018-.093.018-.085.017-.078.022-.068.02-.054.025-.043.024.037.021z"/><path fill="#FFF" d="M98.896 15.198l-.015.018-.25.843.044.007.249-.844-.014.018-.014-.042-.011.004-.004.014z"/><path fill="#FFF" d="M100.483 15.037l-.122-.007-.12-.004h-.337l-.103.007-.103.004-.1.007-.096.007-.096.014-.089.014-.09.018-.086.018-.085.024-.082.028-.078.031.014.042.08-.03.08-.029.078-.025.087-.017.089-.018.089-.014.089-.014.096-.007.1-.007.103-.003h.439l.121.003h.122z"/><path fill="#FFF" d="M101.706 16.224l.018-.143v-.133l-.025-.123-.04-.116-.056-.108-.071-.098-.087-.087-.09-.078-.102-.067-.107-.062-.114-.05-.11-.042-.119-.03-.11-.025-.11-.017-.1-.008v.042l.1.007.102.017.111.025.112.032.11.042.106.049.107.056.096.066.09.077.077.081.072.09.05.103.04.108.025.116v.133l-.018.136z"/><path fill="#FFF" d="M101.331 18.073l.374-1.85-.042-.005-.375 1.848z"/><path fill="#FBB231" d="M100.447 17.155l-.008-.021-.013-.016-.026-.011-.036-.01-.038-.005-.046-.003h-.054l-.054.003-.057.008-.056.007-.058.007-.054.007-.053.01-.046.007-.047.01-.035.007-.025.004-.028.011-.036.01-.04.014-.046.02-.043.022-.05.024-.046.032-.047.032-.046.039-.039.036-.04.047-.03.05-.027.052-.02.056-.012.06-.003.119.017.094.03.07.042.053.053.035.062.02.06.011.06.004.107-.004.1-.011.092-.017.083-.024.078-.03.068-.03.065-.036.056-.04.051-.04.042-.045.04-.042.032-.046.024-.042.018-.042.014-.042.011-.038.015-.099.018-.101.013-.098z"/><path fill="#FFF" d="M107.793 18.368l.007-.081.029-.096.05-.083.06-.074.075-.059.086-.043.092-.028.1-.01.101.01.092.028.086.043.075.06.06.073.05.083.029.096.007.08h-.107l-.003-.063-.022-.078-.036-.069-.047-.06-.056-.048-.068-.036-.078-.024-.083-.007-.082.007-.078.024-.068.036-.057.048-.046.06-.035.07-.022.077-.008.064z"/><path fill="#FFF" d="M108.114 18.368v-.211h.197l.043.003.04.007.026.011.026.013.017.022.015.021.007.024.004.025-.004.032-.007.024-.01.021-.008.008h-.15l.014-.005.025-.003.022-.007.018-.006.014-.011.008-.011.007-.017v-.025l-.005-.017-.006-.015-.012-.007-.01-.007-.018-.003-.018-.003h-.146v.137z"/><path fill="#FFF" d="M107.793 18.368l-.003.02.01.102.029.094.05.084.06.07.075.06.086.046.092.028.1.01.101-.01.092-.028.086-.046.075-.06.06-.07.05-.084.029-.094.011-.102-.004-.02h-.107l.004.02-.007.084-.022.077-.036.067-.047.06-.056.048-.068.039-.078.024-.083.008-.082-.008-.078-.024-.068-.039-.057-.049-.046-.059-.035-.067-.022-.077-.008-.084v-.02z"/><path fill="#FFF" d="M108.114 18.368v.213h.09v-.175h.088l.108.175h.07l-.106-.175h.025l.024-.008.022-.007.019-.013.006-.01h-.15l-.018.003h-.089v-.003z"/><path d="M108.292 18.806l.083-.008.078-.024.068-.039.056-.05.047-.06.036-.067.022-.078.007-.086-.007-.085-.022-.078-.036-.07-.047-.062-.056-.049-.068-.035-.078-.025-.083-.007-.082.007-.078.025-.068.035-.057.05-.046.061-.035.07-.022.078-.008.085.008.086.022.078.035.067.046.06.057.05.068.039.078.024.082.008m0-.43l.033-.007.024-.003.023-.006.018-.008.013-.01.007-.012.008-.017v-.025l-.005-.018-.006-.014-.012-.007-.01-.007-.017-.003-.019-.004h-.146v.142h.09m-.09.213h-.089v-.429h.196l.044.003.039.007.028.01.025.015.018.021.013.022.008.024.003.025-.003.032-.008.025-.01.02-.014.019-.018.013-.022.008-.023.007h-.026l.106.178h-.07l-.108-.178h-.089v.178m-.413-.196l.01-.102.029-.096.05-.085.06-.075.075-.06.086-.043.093-.029.1-.01.1.01.092.03.086.042.075.06.06.075.05.085.029.096.011.102-.011.103-.03.096-.049.085-.06.071-.075.06-.086.047-.092.028-.1.01-.1-.01-.093-.028-.086-.047-.074-.06-.061-.07-.05-.086-.029-.096-.01-.103" stroke="#FFF" stroke-width=".051"/><path fill="#FFF" d="M101.577 18.846h1.006l.36-1.991.014-.077.022-.078.022-.077.028-.077.035-.076.042-.074.047-.07.058-.067.064-.06.072-.055.081-.053.093-.042.104-.035.113-.028.124-.021.14-.008h.089l.16-.899-.1.007-.095.01-.09.018-.085.024-.079.028-.074.036-.071.039-.067.04-.065.05-.06.05-.058.055-.057.056-.054.06-.053.066-.054.063-.05.07.107-.633h-1.002z"/><path stroke="#FFF" stroke-width=".051" d="M101.577 18.846h1.006l.36-1.991.014-.077.022-.078.022-.077.028-.077.035-.076.042-.074.047-.07.058-.067.064-.06.072-.055.081-.053.093-.042.104-.035.113-.028.124-.021.14-.008h.089l.16-.899-.1.007-.095.01-.09.018-.085.024-.079.028-.074.036-.071.039-.067.04-.065.05-.06.05-.058.055-.057.056-.054.06-.053.066-.054.063-.05.07.107-.633h-1.002l-.667 3.75"/><path fill="#FFF" d="M92.134 18.846h1.023l.343-1.991.014-.077.018-.074.018-.073.024-.07.03-.07.035-.067.042-.063.05-.06.058-.053.064-.052.078-.042.086-.038.1-.032.11-.028.122-.018.139-.01h.01l.014.004.018.003h.018l.02.003.013.004.01.003h.003l.005-.013.01-.043.014-.062.018-.078.025-.091.024-.098.034-.098.03-.098.03-.067.036-.067.035-.065.036-.06.032-.052.025-.042.017-.025.007-.01h-.003l-.014-.004-.019-.004-.025-.003h-.024l-.029-.003-.024-.004h-.025l-.11.007-.1.01-.094.018-.086.021-.082.028-.074.035-.068.035-.064.042-.06.046-.058.052-.053.052-.054.06-.053.06-.05.067-.054.069-.053.07.128-.633h-1.023z"/><path stroke="#FFF" stroke-width=".051" d="M92.134 18.846h1.023l.343-1.991.014-.077.018-.074.018-.073.024-.07.03-.07.035-.067.042-.063.05-.06.058-.053.064-.052.078-.042.086-.038.1-.032.11-.028.122-.018.139-.01h.01l.014.004.018.003h.018l.02.003.013.004.01.003h.003l.005-.013.01-.043.014-.062.018-.078.025-.091.024-.098.034-.098.03-.098.03-.067.036-.067.035-.065.036-.06.032-.052.025-.042.017-.025.007-.01h-.003l-.014-.004-.019-.004-.025-.003h-.024l-.029-.003-.024-.004h-.025l-.11.007-.1.01-.094.018-.086.021-.082.028-.074.035-.068.035-.064.042-.06.046-.058.052-.053.052-.054.06-.053.06-.05.067-.054.069-.053.07.128-.633h-1.023l-.667 3.75"/><path fill="#FBB231" d="M107.8 22.53v-.014l.029-.09.05-.08.06-.07.075-.057.085-.042.093-.024.1-.01.101.01.092.024.086.042.074.057.061.07.05.08.03.09v.015h-.105l-.02-.073-.036-.068-.047-.059-.058-.048-.066-.04-.079-.024-.083-.007-.082.007-.077.025-.069.039-.057.048-.046.06-.036.067-.021.073z"/><path fill="#FBB231" d="M108.114 22.53v-.122h.24l.04.007.026.007.026.014.017.018.015.02.007.025.004.032h-.071v-.017l-.005-.018-.006-.014-.012-.007-.01-.007-.018-.004-.018-.003h-.146v.07zm-.324.077l.01-.076h.104v.003l-.007.073z"/><path fill="#FBB231" d="M108.114 22.607v-.076h.09v.07h.088l.032-.007.025-.003.022-.008.018-.007.014-.01.008-.01.007-.018v-.007h.07l-.003.025-.007.02-.01.018-.014.013zm.575 0l-.007-.073v-.003h.103l.011.076zm-.899 0v.011l.01.102.028.094.051.084.06.074.075.06.085.041.093.029.1.01.1-.01.093-.029.086-.041.074-.06.06-.074.05-.084.03-.094.01-.102v-.01h-.107v.01l-.007.084-.021.078-.036.066-.046.059-.057.05-.068.038-.079.024-.082.007-.081-.007-.078-.024-.07-.039-.057-.05-.045-.058-.036-.066-.021-.078-.007-.084v-.01z"/><path fill="#FBB231" d="M108.114 22.607v.204h.09v-.176h.088l.108.176h.07l-.106-.176h.025l.024-.006.022-.007.019-.015z"/><path d="M91.278 16.535h-1.303l.001-.003h-.002l.01-.049.014-.073.02-.07.026-.07.032-.063.033-.06.039-.056.043-.053.047-.049.045-.041.054-.04.053-.03.061-.029.06-.02.061-.015.064-.01.069-.004.063.007.06.011.058.014.057.02.054.029.052.032.047.035.043.041.036.05.035.052.025.06.026.066.014.07.007.078.003.083-.007.087zm.967-.322l-.03-.209-.048-.186-.073-.16-.088-.141-.108-.12-.117-.097-.129-.084-.138-.063-.143-.053-.147-.035-.145-.025-.147-.014-.138-.003-.29.015-.256.041-.232.063-.207.088-.179.105-.157.119-.138.132-.115.14-.1.148-.082.154-.063.15-.054.15-.04.148-.028.137-.022.13-.014.112-.017.286.01.258.039.236.061.207.086.185.102.162.122.143.14.119.149.102.161.087.168.067.174.052.179.042.178.025.178.018.175.003h.117l.11-.003h.097l.093-.005.083-.007.073-.006.072-.007.064-.01.06-.012.058-.013.058-.018.053-.017.053-.021.057-.021.057-.028.057-.028.144-.862-.105.06-.099.055-.103.043-.1.038-.097.032-.099.02-.098.018-.096.015-.095.007-.093.003h-.097l-.092-.003-.093-.007-.093-.011-.088-.01-.094-.014-.071-.015-.071-.024-.072-.031-.064-.04-.064-.04-.058-.053-.052-.052-.05-.06-.044-.06-.038-.066-.029-.064-.026-.067-.014-.066-.006-.066.003-.06.008-.046h2.314l.018-.213.053-.295.025-.266-.003-.238z" fill="#FFF" fill-rule="nonzero"/><g transform="translate(189.974)"><mask id="b" fill="#fff"><use xlink:href="#a"/></mask><path d="M53.96 29.878c0 .914-.805 1.654-1.796 1.654H1.91c-.992 0-1.794-.74-1.794-1.654V2.162C.116 1.249.918.508 1.91.508h50.254c.991 0 1.795.74 1.795 1.654v27.716z" fill="#0078A9" mask="url(#b)"/></g><path d="M206.96 15.309v-.497l-.242.497h-2.094l-.263-.533v.533h-3.911l-.462-1.075h-.785l-.49 1.075h-2.029v-3.244l1.488-3.304h2.847l.4.937v-.93h3.482l.766 1.577.749-1.584h10.993s.576-.007.956.255l-.002-.255h2.769v.358s.498-.358 1.235-.358h4.886l.429.95v-.95h3.132l.569.95v-.95h2.993v6.554H231.3l-.722-1.143v1.137h-3.824l-.536-1.171h-.75l-.504 1.17h-2.313s-.864-.01-1.51-.464v.465h-4.606v-1.53c0-.22-.174-.206-.174-.206h-.168v1.736h-9.233zm-2.299 1.419h6.052l.874.97.893-.97h4.654s.436.01.852.228v-.228h4.143c.527 0 .968.258.968.258v-.258h5.326v.238s.38-.238.89-.238h3.47v.238s.437-.238.9-.238h2.724v6.175s-.36.398-1.1.398h-3.591v-.196s-.343.196-.864.196h-9.541v-1.597c0-.157-.07-.185-.212-.185h-.132v1.782h-2.981v-1.77s-.33.173-.884.173h-1.072v1.597h-3.675l-.836-1.002-.895 1.002h-5.963v-6.573z" fill="#FFF"/><path fill="#0078A9" d="M223.736 17.713h3.798v1h-2.635v.872h2.562v.882h-2.562v.918h2.635v.974h-3.798zm11.136 1.81c1.427.073 1.547.773 1.547 1.52 0 .87-.73 1.338-1.49 1.338h-2.44v-.996h1.902c.322 0 .802 0 .802-.447 0-.212-.084-.347-.428-.383a14.283 14.283 0 0 0-.802-.054c-1.29-.033-1.591-.663-1.591-1.43 0-.87.625-1.347 1.385-1.347h2.44v.996h-1.785c-.407.004-.845-.047-.845.403 0 .286.217.343.492.37.094 0 .729.031.813.03m-4.374 0c1.427.073 1.547.773 1.547 1.52 0 .87-.729 1.338-1.49 1.338h-2.439v-.996h1.902c.322 0 .802 0 .802-.447 0-.212-.085-.347-.428-.383a14.382 14.382 0 0 0-.803-.054c-1.29-.033-1.589-.663-1.589-1.43 0-.87.623-1.347 1.384-1.347h2.439v.996h-1.785c-.407.004-.845-.047-.845.403 0 .286.217.343.492.37.095 0 .728.031.813.03"/><path d="M216.331 19.836h-1.446V18.72h1.451c.487 0 .64.306.64.535 0 .31-.169.58-.645.58zm-2.619 2.088l-1.669-1.94 1.67-1.815v3.755zm-4.44-.54h-2.68v-.917h2.563v-.881h-2.562v-.872l2.825.006 1.131 1.264-1.278 1.4zm7.45-3.66h-4.076l-1.332 1.441-1.288-1.452h-4.578v4.646h4.43l1.395-1.534 1.362 1.546h2.229v-1.578h1.563c.602 0 1.702-.02 1.702-1.649 0-1.162-.835-1.42-1.407-1.42zm4.61 2.049h-1.447V18.72h1.452c.485 0 .64.306.64.535 0 .31-.169.518-.645.518m1.003.481c.634-.31.802-.725.802-1.286 0-.995-.823-1.244-1.393-1.244h-3.02v4.647h1.161v-1.64h1.52c.403 0 .56.394.572.788l.03.852h1.13l-.041-.956c0-.747-.21-1.1-.761-1.161" fill="#0078A9" fill-rule="nonzero"/><mask id="d" fill="#fff"><use xlink:href="#c"/></mask><path fill="#0078A9" mask="url(#d)" d="M219.188 14.344h1.162V9.692h-1.162z"/><mask id="f" fill="#fff"><use xlink:href="#e"/></mask><path fill="#0078A9" mask="url(#f)" d="M209.678 9.697h3.797v1.001h-2.635v.872h2.561v.881h-2.56v.918h2.634v.975h-3.797z"/><mask id="h" fill="#fff"><use xlink:href="#g"/></mask><path d="M216.773 11.747h-1.447v-1.053h1.453c.484 0 .64.306.64.534 0 .312-.17.519-.646.519m1.004.48c.635-.31.803-.725.803-1.286 0-.995-.825-1.243-1.394-1.243h-3.022v4.646h1.162v-1.638h1.52c.403 0 .562.392.572.787l.031.851h1.13l-.04-.954c0-.747-.213-1.1-.762-1.163" fill="#0078A9" fill-rule="nonzero" mask="url(#h)"/><mask id="j" fill="#fff"><use xlink:href="#i"/></mask><path d="M198.813 12.304l.692-1.624.722 1.624h-1.414zM207 9.697l-1.426 3.118-1.422-3.118h-1.82v4.476l-2.03-4.476h-1.536l-2.071 4.647h1.226l.454-1.038h2.318l.46 1.038h2.34v-3.45l1.552 3.45h1.056l1.59-3.392v3.392h1.162V9.697H207z" fill="#0078A9" fill-rule="nonzero" mask="url(#j)"/><mask id="l" fill="#fff"><use xlink:href="#k"/></mask><path d="M225.203 12.306l.692-1.624.728 1.624h-1.42zm7.136-2.611v3.217l-1.959-3.217h-1.717v4.364l-1.98-4.362h-1.536l-1.601 3.6s-.677 0-.745-.017c-.28-.057-.717-.25-.723-1.07v-.337c0-1.089.602-1.168 1.375-1.168h.717v-1.01h-1.517c-.529 0-1.677.396-1.716 2.305-.027 1.286.544 2.347 1.832 2.347h1.532l.454-1.038h2.318l.46 1.038h2.292v-3.403l2.09 3.403h1.586V9.695h-1.162z" fill="#0078A9" fill-rule="nonzero" mask="url(#l)"/><mask id="n" fill="#fff"><use xlink:href="#m"/></mask><path d="M180.56 29.965c0 .913-.803 1.653-1.793 1.653h-50.2c-.99 0-1.792-.74-1.792-1.653V2.279c0-.913.803-1.652 1.792-1.652h50.2c.99 0 1.794.739 1.794 1.652v27.686z" fill="#FFF" mask="url(#n)"/><mask id="p" fill="#fff"><use xlink:href="#o"/></mask><path fill="#1C3670" mask="url(#p)" d="M173.324 13.304v-1.185h-.449v-.158h1.08v.158h-.45v1.185z"/><mask id="r" fill="#fff"><use xlink:href="#q"/></mask><path d="M174.135 13.304V11.96h.268l.326.95c.03.088.052.156.064.198l.075-.215.33-.933h.244v1.343h-.175V12.18l-.4 1.123h-.163l-.395-1.137v1.137h-.174z" fill="#1C3670" mask="url(#r)"/><mask id="t" fill="#fff"><use xlink:href="#s"/></mask><path d="M162.702 12.915a1.685 1.685 0 0 0-.622-.65 2.831 2.831 0 0 0-.98-.355 7.596 7.596 0 0 0-1.33-.102h-2.355a.575.575 0 0 0-.539.421l-1.593 6.778c-.055.233.099.422.34.422h1.132c.242 0 .485-.19.54-.422l.387-1.642a.58.58 0 0 1 .538-.422h.326c1.378 0 2.45-.277 3.22-.833.767-.557 1.15-1.288 1.15-2.194 0-.4-.071-.732-.214-1m-2.437 2.215c-.34.243-.813.366-1.424.366h-.28c-.244 0-.396-.19-.342-.422l.34-1.44a.579.579 0 0 1 .538-.42h.37c.432 0 .759.072.978.216.22.142.33.362.33.657 0 .452-.17.799-.51 1.043" fill="#1C3670" fill-rule="nonzero" mask="url(#t)"/><mask id="v" fill="#fff"><use xlink:href="#u"/></mask><path d="M165.796 19.43h1.418a.58.58 0 0 0 .54-.423l.823-3.49a2.12 2.12 0 0 0 .048-.287c.012-.11.02-.198.02-.265 0-.495-.216-.86-.644-1.096-.43-.235-1.099-.353-2.014-.353-.456 0-.91.034-1.367.103-.458.07-.795.132-1.014.186l-.192.952c-.046.233-.007.424.088.424.185-.067.464-.152.835-.256a3.894 3.894 0 0 1 1.02-.153c.454 0 .794.048 1.022.143.228.096.343.263.343.5 0 .057-.007.11-.017.157l-.025.102a21.66 21.66 0 0 0-1.803.174 5.41 5.41 0 0 0-1.433.384c-.428.189-.752.44-.97.756-.217.316-.327.701-.327 1.155 0 .43.154.78.461 1.048.307.268.704.402 1.189.402.302 0 .537-.02.708-.062.17-.042.352-.103.545-.183.142-.062.298-.147.464-.255.166-.106.31-.2.427-.276l-.145.613zm.353-1.498c-.182.13-.38.236-.59.32a1.558 1.558 0 0 1-.588.126c-.281 0-.495-.039-.642-.12-.146-.08-.22-.218-.22-.415 0-.224.054-.405.167-.542a1.07 1.07 0 0 1 .48-.316c.205-.072.452-.125.742-.164.291-.037.603-.069.937-.097l-.286 1.208z" fill="#1C3670" fill-rule="nonzero" mask="url(#v)"/><mask id="x" fill="#fff"><use xlink:href="#w"/></mask><path d="M172.25 11.869l-1.61 7.139a.582.582 0 0 1-.54.422h-1.009c-.24 0-.396-.19-.34-.422l1.512-6.718a.58.58 0 0 1 .54-.421h1.448" fill="#1C3670" mask="url(#x)"/><mask id="z" fill="#fff"><use xlink:href="#y"/></mask><path d="M142.79 12.928a1.696 1.696 0 0 0-.622-.65 2.847 2.847 0 0 0-.98-.355 7.609 7.609 0 0 0-1.33-.103h-2.355a.58.58 0 0 0-.54.422l-1.593 6.778c-.054.233.1.423.342.423h1.131c.242 0 .485-.19.54-.423l.387-1.643a.579.579 0 0 1 .54-.42h.323c1.378 0 2.451-.278 3.219-.834.769-.556 1.152-1.287 1.152-2.194 0-.4-.07-.733-.214-1.001m-2.438 2.215c-.34.244-.812.367-1.423.367h-.28c-.243 0-.396-.191-.343-.422l.34-1.44a.58.58 0 0 1 .54-.421h.37c.431 0 .758.073.978.216.219.142.329.362.329.659 0 .45-.172.798-.511 1.041" fill="#1C3670" fill-rule="nonzero" mask="url(#z)"/><mask id="B" fill="#fff"><use xlink:href="#A"/></mask><path d="M145.884 19.442h1.418a.58.58 0 0 0 .54-.422l.822-3.49a1.82 1.82 0 0 0 .048-.287c.013-.11.02-.198.02-.265 0-.496-.216-.86-.644-1.096-.428-.236-1.1-.354-2.014-.354-.455 0-.91.034-1.366.104-.46.07-.797.13-1.013.186l-.193.95c-.046.234-.007.426.088.426.186-.068.464-.153.836-.256a3.877 3.877 0 0 1 1.02-.154c.452 0 .792.048 1.022.143.227.097.343.263.343.5a.833.833 0 0 1-.042.259c-.647.037-1.248.095-1.803.174a5.467 5.467 0 0 0-1.434.384c-.428.19-.75.44-.97.756-.219.316-.328.702-.328 1.155 0 .431.155.782.462 1.049.307.267.704.402 1.189.402.301 0 .537-.021.707-.063.17-.043.352-.102.545-.182.143-.062.299-.147.465-.256.166-.107.31-.199.426-.276l-.144.613zm.353-1.498c-.185.13-.381.237-.59.32-.21.085-.405.126-.589.126-.279 0-.494-.04-.641-.12-.147-.08-.22-.218-.22-.416 0-.222.054-.405.165-.54.112-.135.273-.241.482-.317.205-.07.452-.125.743-.163.29-.037.603-.07.934-.097l-.284 1.207z" fill="#1C3670" fill-rule="nonzero" mask="url(#B)"/><mask id="D" fill="#fff"><use xlink:href="#C"/></mask><path d="M154.473 13.52c-.241 0-.56.191-.707.423l-1.995 3.358-.548-3.353a.58.58 0 0 0-.54-.423h-1.007c-.243 0-.398.19-.341.423l.872 5.538c.016.12.032.222.047.306l-1.086 1.786c-.146.231-.068.421.174.421h1.17c.242 0 .56-.19.706-.421l4.866-8.057h-1.61z" fill="#1C3670" mask="url(#D)"/><mask id="F" fill="#fff"><use xlink:href="#E"/></mask><path d="M309.977 29.965c0 .913-.803 1.653-1.793 1.653h-50.2c-.99 0-1.793-.74-1.793-1.653V2.279c0-.913.803-1.652 1.793-1.652h50.2c.99 0 1.793.739 1.793 1.652v27.686z" fill="#FFF" mask="url(#F)"/><mask id="H" fill="#fff"><use xlink:href="#G"/></mask><path d="M309.813 18.54s-13.076 9.058-37.025 13.116h35.435c.877 0 1.59-.7 1.59-1.56V18.54z" fill="#F58220" mask="url(#H)"/><g transform="translate(281 11)"><mask id="J" fill="#fff"><use xlink:href="#I"/></mask><path d="M.189 3.439c0 1.884 1.426 3.292 3.33 3.292 1.855 0 3.32-1.427 3.32-3.256C6.84 1.657 5.386.23 3.52.23 1.68.23.189 1.665.189 3.44" mask="url(#J)"/></g><path d="M266.32 15.302c-.392.35-.9.502-1.704.502h-.334v-4.172h.334c.805 0 1.292.142 1.705.51.43.379.687.965.687 1.57 0 .607-.257 1.213-.687 1.59m-1.455-4.738h-1.83v6.308h1.82c.966 0 1.664-.227 2.277-.728a3.156 3.156 0 0 0 1.158-2.423c0-1.862-1.408-3.157-3.425-3.157" fill="#001722" fill-rule="nonzero"/><mask id="L" fill="#fff"><use xlink:href="#K"/></mask><path fill="#001722" mask="url(#L)" d="M268.866 16.872h1.243v-6.308h-1.243z"/><mask id="N" fill="#fff"><use xlink:href="#M"/></mask><path d="M273.153 12.984c-.747-.274-.967-.455-.967-.794 0-.398.39-.7.928-.7.373 0 .68.152 1.006.51l.649-.84a2.806 2.806 0 0 0-1.875-.701c-1.129 0-1.99.776-1.99 1.806 0 .87.402 1.315 1.57 1.732.487.169.735.282.86.36.249.16.374.387.374.651 0 .512-.412.889-.968.889-.593 0-1.071-.292-1.359-.84l-.802.766c.573.831 1.262 1.201 2.21 1.201 1.292 0 2.201-.852 2.201-2.072 0-1.003-.42-1.457-1.837-1.968" fill="#001722" mask="url(#N)"/><mask id="P" fill="#fff"><use xlink:href="#O"/></mask><path d="M275.382 13.72c0 1.857 1.473 3.294 3.368 3.294.537 0 .995-.105 1.56-.369v-1.447c-.498.492-.937.69-1.502.69-1.254 0-2.144-.898-2.144-2.176 0-1.21.919-2.166 2.086-2.166.592 0 1.044.208 1.56.71v-1.449c-.544-.273-.995-.385-1.531-.385-1.886 0-3.397 1.466-3.397 3.299" fill="#001722" mask="url(#P)"/><mask id="R" fill="#fff"><use xlink:href="#Q"/></mask><path fill="#001722" mask="url(#R)" d="M290.396 14.801l-1.704-4.237h-1.359l2.71 6.469h.668l2.757-6.47h-1.348z"/><mask id="T" fill="#fff"><use xlink:href="#S"/></mask><path fill="#001722" mask="url(#T)" d="M294.034 16.872h3.53v-1.068h-2.286v-1.703h2.2v-1.069h-2.2v-1.4h2.286v-1.068h-3.53z"/><mask id="V" fill="#fff"><use xlink:href="#U"/></mask><path d="M299.994 13.467h-.363v-1.911h.382c.777 0 1.198.323 1.198.936 0 .634-.42.975-1.217.975m2.498-1.042c0-1.181-.822-1.86-2.258-1.86h-1.847v6.307h1.244v-2.536h.163l1.722 2.536h1.532l-2.011-2.657c.939-.19 1.455-.824 1.455-1.79" fill="#001722" fill-rule="nonzero" mask="url(#V)"/><mask id="X" fill="#fff"><use xlink:href="#W"/></mask><path d="M303.175 11.176h-.03v-.184h.032c.083 0 .125.031.125.091 0 .062-.044.093-.127.093m.296-.096c0-.14-.095-.217-.267-.217h-.227v.707h.167v-.275l.198.275h.21l-.235-.292a.195.195 0 0 0 .154-.198" fill="#231F20" fill-rule="nonzero" mask="url(#X)"/><mask id="Z" fill="#fff"><use xlink:href="#Y"/></mask><path d="M303.197 11.565a.406.406 0 0 1-.404-.41c0-.228.179-.41.404-.41.216 0 .396.185.396.41 0 .226-.18.41-.396.41m0-.91a.5.5 0 1 0-.006 1 .5.5 0 0 0 .006-1" fill="#231F20" fill-rule="nonzero" mask="url(#Z)"/><mask id="ab" fill="#fff"><use xlink:href="#aa"/></mask><path fill="#231F20" mask="url(#ab)" d="M274.192 18.53l1.666 1.724v-1.635h.237v2.206l-1.665-1.72v1.626h-.238z"/><mask id="ad" fill="#fff"><use xlink:href="#ac"/></mask><path d="M274.214 18.584l1.666 1.725v-1.668h.193v2.13l-1.664-1.722v1.66h-.195v-2.125zm-.044-.054v2.223h.283v-1.595l1.664 1.721v-2.281h-.282V20.2l-1.665-1.726v.056z" fill="#231F20" fill-rule="nonzero" mask="url(#ad)"/><mask id="af" fill="#fff"><use xlink:href="#ae"/></mask><path fill="#231F20" mask="url(#af)" d="M277.248 18.62h1.107v.217h-.869v.628h.843v.219h-.843v.828h.869v.219h-1.107z"/><mask id="ah" fill="#fff"><use xlink:href="#ag"/></mask><path d="M278.333 18.641v.175h-.87v.67h.844v.175h-.844v.872h.87v.175h-1.063v-2.067h1.063zm.021-.044h-1.128v2.156h1.151v-.263h-.868v-.785h.842v-.262h-.842v-.582h.868v-.264h-.023z" fill="#231F20" fill-rule="nonzero" mask="url(#ah)"/><mask id="aj" fill="#fff"><use xlink:href="#ai"/></mask><path fill="#231F20" mask="url(#aj)" d="M280.034 20.73h-.238v-1.892h-.514v-.219h1.273v.219h-.52z"/><mask id="al" fill="#fff"><use xlink:href="#ak"/></mask><path d="M280.534 18.641v.175h-.522v1.892h-.193v-1.892h-.515v-.175h1.23zm.021-.044h-1.296v.264h.515v1.892h.282v-1.892h.522v-.264h-.023z" fill="#231F20" fill-rule="nonzero" mask="url(#al)"/><mask id="an" fill="#fff"><use xlink:href="#am"/></mask><path fill="#231F20" mask="url(#an)" d="M282.147 20.201l.69-1.69.691 1.69.56-1.582h.26l-.82 2.22-.69-1.7-.691 1.7-.818-2.22h.257z"/><mask id="ap" fill="#fff"><use xlink:href="#ao"/></mask><path d="M282.167 20.21l.67-1.64c.04.093.693 1.693.693 1.693l.575-1.622h.21l-.787 2.137-.69-1.698-.69 1.698-.788-2.137h.21l.575 1.622.022-.053zm.65-1.708l-.67 1.637c-.035-.103-.545-1.542-.545-1.542h-.306l.85 2.305.692-1.703.691 1.703.85-2.305h-.306s-.51 1.439-.545 1.542c-.043-.102-.69-1.687-.69-1.687l-.02.05z" fill="#231F20" fill-rule="nonzero" mask="url(#ap)"/><mask id="ar" fill="#fff"><use xlink:href="#aq"/></mask><path d="M285.434 19.675c0 .474.391.872.876.872a.876.876 0 0 0 .873-.872.872.872 0 0 0-.873-.874.873.873 0 0 0-.876.874m1.989.002c0 .607-.505 1.09-1.113 1.09-.61 0-1.113-.483-1.113-1.09 0-.604.503-1.094 1.113-1.094.608 0 1.113.49 1.113 1.094" fill="#231F20" fill-rule="nonzero" mask="url(#ar)"/><mask id="at" fill="#fff"><use xlink:href="#as"/></mask><path d="M285.218 19.677c0-.59.49-1.07 1.091-1.07s1.092.48 1.092 1.07c0 .59-.49 1.067-1.092 1.067a1.08 1.08 0 0 1-1.09-1.067m-.045 0c0 .612.51 1.111 1.135 1.111.626 0 1.136-.499 1.136-1.111 0-.616-.51-1.116-1.136-1.116-.625 0-1.135.5-1.135 1.116" fill="#231F20" fill-rule="nonzero" mask="url(#at)"/><mask id="av" fill="#fff"><use xlink:href="#au"/></mask><path d="M285.457 19.675a.853.853 0 0 1 1.705 0 .852.852 0 0 1-1.705 0m-.046 0a.897.897 0 0 0 1.794 0 .898.898 0 0 0-1.794 0" fill="#231F20" fill-rule="nonzero" mask="url(#av)"/><mask id="ax" fill="#fff"><use xlink:href="#aw"/></mask><path d="M288.691 19.596h.074c.269 0 .54-.049.54-.377 0-.347-.257-.382-.542-.382h-.072v.76zm0 1.134h-.237v-2.11h.309c.404 0 .78.107.78.582a.553.553 0 0 1-.535.581l.68.947h-.292l-.645-.927h-.06v.927z" fill="#231F20" fill-rule="nonzero" mask="url(#ax)"/><mask id="az" fill="#fff"><use xlink:href="#ay"/></mask><path d="M288.762 18.641c.517 0 .759.179.759.561a.534.534 0 0 1-.515.56l-.038.004.678.942h-.25c0-.016-.627-.917-.627-.917l-.078-.01h-.022v.927h-.193v-2.067h.286zm-.308-.044h-.022v2.156h.281v-.928h.038c0 .016.627.918.627.918l.31.01h.044l-.687-.956a.57.57 0 0 0 .52-.595c0-.408-.261-.605-.803-.605h-.308z" fill="#231F20" fill-rule="nonzero" mask="url(#az)"/><mask id="aB" fill="#fff"><use xlink:href="#aA"/></mask><path d="M288.787 18.873c.345 0 .655.031.655.444 0 .39-.33.442-.652.442h-.065v-.886h.062zm-.09-.058h-.028v1h.12c.33 0 .71-.058.71-.498 0-.464-.368-.502-.712-.502h-.09z" fill="#231F20" fill-rule="nonzero" mask="url(#aB)"/><mask id="aD" fill="#fff"><use xlink:href="#aC"/></mask><path fill="#231F20" mask="url(#aD)" d="M291.843 18.62h.32l-1.002.983 1.036 1.128h-.329l-.874-.97-.06.058v.912h-.238V18.62h.237v.903z"/><mask id="aF" fill="#fff"><use xlink:href="#aE"/></mask><path d="M292.109 18.641l-.979.961 1.017 1.106h-.279c0-.011-.86-.961-.86-.961l-.014-.018-.076.075-.006.904h-.193v-2.067h.193v.936l.94-.936h.257zm.054-.044h-.328s-.81.804-.878.874v-.874h-.283v2.156h.283v-.93c.002.001.02-.017.035-.03l.86.952.345.008h.051s-1.028-1.12-1.057-1.15l1.025-1.006h-.053z" fill="#231F20" fill-rule="nonzero" mask="url(#aF)"/><path d="M4.023 6.692C2.182 6.692.689 5.227.689 3.414.69 1.486 2.117.049 4.023.049a3.29 3.29 0 0 1 3.323 3.326c0 1.86-1.456 3.317-3.323 3.317" transform="matrix(1 0 0 -1 280 17.2)" fill="url(#aG)"/></g></svg>