<svg width="120" height="120" xmlns="http://www.w3.org/2000/svg" xmlns:xlink="http://www.w3.org/1999/xlink"><defs><path id="a" d="M0 0h115.122v109H0z"/></defs><g fill="none" fill-rule="evenodd"><g transform="translate(2.914 6)"><mask id="b" fill="#fff"><use xlink:href="#a"/></mask><path d="M110.423 96.3c0 4.434-3.64 8.042-8.113 8.042H12.812c-4.474 0-8.113-3.608-8.113-8.043V12.701c0-4.435 3.64-8.043 8.113-8.043h89.498c4.474 0 8.113 3.608 8.113 8.043v83.598zM102.31 0H12.812C5.747 0 0 5.697 0 12.7v83.6c0 7.002 5.747 12.7 12.812 12.7h89.498c7.065 0 12.812-5.698 12.812-12.7V12.7c0-7.003-5.747-12.7-12.812-12.7z" fill="#5C5240" fill-rule="nonzero" mask="url(#b)"/></g><path d="M71.865 73.064H61.034V60.368a2.345 2.345 0 0 0-2.345-2.347H43.073a2.346 2.346 0 0 0-2.345 2.347v12.696h-10.83V51.141h41.967v21.923zm-26.448 0h10.928V62.715H45.417v10.35zM35.134 30.678h31.495l10.063 15.768H25.07l10.064-15.768zm41.42 44.733v-24.27h4.418a2.345 2.345 0 0 0 1.975-3.612l-13.06-20.462a2.343 2.343 0 0 0-1.975-1.084H33.85c-.8 0-1.545.409-1.976 1.084l-13.06 20.462a2.351 2.351 0 0 0-.08 2.392c.412.752 1.2 1.22 2.056 1.22h4.42v24.27a2.346 2.346 0 0 0 2.343 2.347H74.21a2.346 2.346 0 0 0 2.345-2.347z" fill="#004646" fill-rule="nonzero"/><path d="M97.325 25.983h-7.003c-1.346 0-2.437 1.051-2.437 2.347 0 1.297 1.09 2.348 2.437 2.348h4.566v42.386h-4.566c-1.346 0-2.437 1.05-2.437 2.347 0 1.296 1.09 2.347 2.437 2.347h7.003c1.347 0 2.438-1.05 2.438-2.347v-47.08c0-1.297-1.091-2.348-2.438-2.348M51.732 86.842H26.275c-1.296 0-2.347 1.016-2.347 2.27 0 1.255 1.051 2.271 2.347 2.271h25.457c1.296 0 2.347-1.016 2.347-2.27 0-1.255-1.051-2.271-2.347-2.271m0 9.991H26.275c-1.296 0-2.347 1.017-2.347 2.271 0 1.255 1.051 2.271 2.347 2.271h25.457c1.296 0 2.347-1.016 2.347-2.27 0-1.255-1.051-2.272-2.347-2.272m42.942-9.991H69.218c-1.296 0-2.347 1.016-2.347 2.27 0 1.255 1.05 2.271 2.347 2.271h25.456c1.297 0 2.348-1.016 2.348-2.27 0-1.255-1.051-2.271-2.348-2.271m0 9.991H69.218c-1.296 0-2.347 1.017-2.347 2.271 0 1.255 1.05 2.271 2.347 2.271h25.456c1.297 0 2.348-1.016 2.348-2.27 0-1.255-1.051-2.272-2.348-2.272" fill="#5C5240"/></g></svg>