<svg width="120" height="120" xmlns="http://www.w3.org/2000/svg" xmlns:xlink="http://www.w3.org/1999/xlink"><defs><path id="a" d="M.14.04h71.962v46.014H.139z"/></defs><g fill="none" fill-rule="evenodd"><g transform="translate(16.89 5)"><mask id="b" fill="#fff"><use xlink:href="#a"/></mask><path d="M2.303 17.117h30.29v26.776c0 1.194.969 2.161 2.164 2.161a2.162 2.162 0 0 0 2.163-2.16V17.116h22.433c.644 0 1.254-.287 1.665-.782L71.604 3.58A2.16 2.16 0 0 0 71.32.537a2.165 2.165 0 0 0-3.046.284l-9.937 11.974H2.303a2.162 2.162 0 0 0-2.164 2.161c0 1.193.97 2.161 2.164 2.161" fill="#5C5240" mask="url(#b)"/></g><path d="M112.58 49.368a2.157 2.157 0 0 0 2.165-2.147c0-1.186-.97-2.148-2.166-2.148h-1.878v-11.26h1.878a2.157 2.157 0 0 0 2.166-2.146c0-1.186-.97-2.147-2.166-2.147h-1.878v-8.771c0-1.186-.97-2.147-2.166-2.147H96.24a2.156 2.156 0 0 0-2.166 2.147c0 1.185.97 2.147 2.166 2.147h10.129v6.624h-1.878a2.157 2.157 0 0 0-2.166 2.147c0 1.185.97 2.147 2.166 2.147h1.878v11.26h-1.878a2.157 2.157 0 0 0-2.166 2.147c0 1.185.97 2.147 2.166 2.147h1.878v6.623H59.295a2.157 2.157 0 0 0-2.166 2.147c0 1.186.97 2.148 2.166 2.148h6.9V71.04c0 1.185.97 2.147 2.166 2.147a2.157 2.157 0 0 0 2.166-2.147V60.286h35.842v13.332h-1.878a2.156 2.156 0 0 0-2.166 2.148c0 1.185.97 2.147 2.166 2.147h1.878v11.26h-1.878a2.157 2.157 0 0 0-2.166 2.146c0 1.186.97 2.148 2.166 2.148h1.878v13.332h-3.229a2.157 2.157 0 0 0-2.166 2.147c0 1.186.97 2.147 2.166 2.147h5.395a2.157 2.157 0 0 0 2.166-2.147v-15.48h1.878a2.157 2.157 0 0 0 2.166-2.147c0-1.185-.97-2.147-2.166-2.147h-1.878v-11.26h1.878a2.157 2.157 0 0 0 2.166-2.146c0-1.186-.97-2.148-2.166-2.148h-1.878v-24.25h1.878z" fill="#5C5240"/><path d="M84.826 33.759a2.247 2.247 0 0 0-3.159 0l-2.132 2.113-2.131-2.113a2.247 2.247 0 0 0-3.159 0 2.2 2.2 0 0 0 0 3.131l2.132 2.114-2.132 2.114a2.2 2.2 0 0 0 0 3.131 2.234 2.234 0 0 0 1.58.65c.57 0 1.142-.217 1.579-.65l2.131-2.113 2.132 2.113a2.235 2.235 0 0 0 1.58.65c.571 0 1.142-.217 1.579-.65a2.2 2.2 0 0 0 0-3.131l-2.132-2.114 2.132-2.114a2.2 2.2 0 0 0 0-3.131" fill="#5C5240"/><path d="M69.642 107.67v-2.497a2.163 2.163 0 0 0-2.162-2.165c-1.193 0-2.16.97-2.16 2.165v2.497H54.577v-2.497a2.163 2.163 0 0 0-2.162-2.165c-1.193 0-2.16.97-2.16 2.165v2.497H39.513v-2.497a2.163 2.163 0 0 0-2.162-2.165c-1.193 0-2.16.97-2.16 2.165v2.497H24.45v-2.497a2.163 2.163 0 0 0-2.161-2.165c-1.194 0-2.161.97-2.161 2.165v2.497H9.323V28.714l78.829 78.956h-18.51zm25.145.523L8.69 21.956a2.158 2.158 0 0 0-2.356-.469 2.164 2.164 0 0 0-1.334 2v86.348c0 1.196.968 2.165 2.161 2.165H93.38a2.163 2.163 0 0 0 1.408-3.807z" fill="#004646" fill-rule="nonzero"/><path d="M23.09 64.993L50.572 92.25H23.09V64.993zm-2.186 31.592h34.955c1.206 0 2.185-.97 2.185-2.168 0-.657-.295-1.246-.761-1.643L22.449 58.228a2.198 2.198 0 0 0-2.382-.47 2.166 2.166 0 0 0-1.349 2.003v34.656c0 1.197.979 2.168 2.186 2.168z" fill="#004646" fill-rule="nonzero"/></g></svg>