<svg width="30" height="27" xmlns="http://www.w3.org/2000/svg"><path d="M27.506 15.89c-.13.576-.635.985-1.219.985H11.02l.341 1.688h13.98c.802 0 1.397.754 1.22 1.546l-.288 1.28a2.956 2.956 0 0 1 1.645 2.658C27.917 25.677 26.61 27 25 27s-2.917-1.322-2.917-2.953c0-.827.336-1.573.877-2.11H12.04c.54.537.877 1.283.877 2.11C12.917 25.677 11.61 27 10 27c-1.61 0-2.917-1.322-2.917-2.953 0-1.096.59-2.051 1.465-2.561L4.89 3.375H1.25C.56 3.375 0 2.808 0 2.109v-.843C0 .566.56 0 1.25 0h5.34c.594 0 1.106.423 1.225 1.012l.477 2.363H28.75c.803 0 1.397.754 1.22 1.546L27.505 15.89zM8.816 6.077l1.695 8.347h15.035l1.848-8.347H8.816z" fill="#5C5240" fill-rule="evenodd"/></svg>