<?xml version="1.0" encoding="UTF-8"?>
<svg width="250px" height="96px" viewBox="0 0 250 96" version="1.1" xmlns="http://www.w3.org/2000/svg" xmlns:xlink="http://www.w3.org/1999/xlink">
    <title>logo_white</title>
    <g id="Homepage" stroke="none" stroke-width="1" fill="none" fill-rule="evenodd">
        <g id="Porch-Store-Home" transform="translate(-61.000000, -29.000000)" fill="#FFFFFF">
            <g id="Navigation" transform="translate(0.000000, 18.000000)">
                <path d="M63.344,89.536 L309.483,89.536 L309.483,87.87 L63.344,87.87 L63.344,89.536 Z M137.533,45.258 L141.541,45.258 L141.541,17.502 L137.533,17.502 L137.533,45.258 Z M143.206,45.258 L147.052,45.258 L147.052,17.502 L143.206,17.502 L143.206,45.258 Z M148.717,45.258 L152.563,45.258 L152.563,17.502 L148.717,17.502 L148.717,45.258 Z M154.228,45.258 L158.073,45.258 L158.073,17.502 L154.228,17.502 L154.228,45.258 Z M159.739,45.258 L163.763,45.258 L163.763,17.502 L159.739,17.502 L159.739,45.258 Z M165.487,39.557 C165.659,39.537 165.867,39.53 166.116,39.533 C165.949,39.985 165.85,40.401 165.645,40.751 C165.606,40.816 165.55,40.87 165.487,40.92 L165.487,39.557 Z M165.487,34.813 C166.758,34.902 168.028,35.001 169.247,35.092 C168.605,35.996 168.017,36.81 167.444,37.634 C167.065,38.179 166.167,38.603 165.487,38.543 L165.487,34.813 Z M165.487,31.391 C165.657,31.426 165.827,31.461 165.997,31.496 C166.009,31.597 166.02,31.697 166.032,31.798 C165.85,31.93 165.669,32.063 165.487,32.196 L165.487,31.391 Z M165.487,28.067 C167.196,29.119 169.19,29.153 171.068,29.581 C171.668,29.718 172.048,29.965 172.297,30.519 C172.581,31.155 172.93,31.762 173.286,32.451 C172.967,32.346 172.69,32.282 172.436,32.165 C171.2,31.597 169.912,31.349 168.551,31.442 C167.351,31.524 166.371,30.94 165.487,30.293 L165.487,28.067 Z M165.487,24.603 C165.836,24.91 166.143,25.18 166.448,25.448 C166.409,25.537 166.369,25.625 166.329,25.714 C166.063,25.653 165.759,25.634 165.487,25.579 L165.487,24.603 Z M165.487,20.409 C166.694,20.919 167.825,21.323 168.355,22.675 C168.732,23.64 169.349,24.508 169.844,25.427 C169.976,25.67 170.057,25.939 170.187,26.261 C169.332,26.328 168.652,26.232 168.085,25.658 C167.259,24.822 166.462,23.947 165.558,23.204 C165.534,23.184 165.51,23.164 165.487,23.143 L165.487,20.409 Z M165.487,18.05 L166.027,18.05 C166.264,18.496 166.474,18.96 166.7,19.413 C166.648,19.473 166.597,19.534 166.544,19.594 C166.193,19.496 165.834,19.418 165.487,19.308 L165.487,18.05 Z M170.02,18.05 C170.314,18.966 170.693,19.87 170.354,20.884 C170.166,21.447 170.043,22.033 169.891,22.608 C169.805,22.631 169.719,22.655 169.634,22.678 C168.827,21.175 168.019,19.67 167.149,18.05 L170.02,18.05 Z M171.362,28.932 C170.198,28.512 169.144,28.13 168.061,27.738 C168.824,27.738 169.524,27.759 170.222,27.733 C170.954,27.706 171.238,28.105 171.362,28.932 L171.362,28.932 Z M171.285,24.254 C171.691,24.383 172.272,24.39 172.471,24.668 C172.897,25.265 173.125,26.003 173.447,26.71 C172.087,26.847 171.711,26.648 171.232,25.399 C171.108,25.072 171.26,24.638 171.285,24.254 L171.285,24.254 Z M171.423,21.917 C172.315,22.238 172.695,22.865 172.485,23.568 C172.448,23.691 172.18,23.875 172.127,23.844 C171.818,23.665 171.383,23.481 171.295,23.202 C171.183,22.846 171.36,22.399 171.423,21.917 L171.423,21.917 Z M171.88,18.05 L172.297,18.05 C172.935,19.357 173.575,20.664 174.213,21.972 C174.163,22.02 174.111,22.068 174.06,22.116 C173.339,21.675 172.607,21.248 171.904,20.778 C171.761,20.683 171.643,20.421 171.655,20.245 C171.706,19.512 171.797,18.781 171.88,18.05 L171.88,18.05 Z M174.985,18.05 C175.405,18.72 175.482,19.764 175.08,20.907 C174.593,19.892 174.156,18.982 173.709,18.05 L174.985,18.05 Z M176.423,19.938 C180.152,23.853 182.777,28.252 184.386,33.385 C183.962,33.066 183.58,32.836 183.267,32.537 C180.744,30.133 178.258,27.661 176.564,24.599 C175.825,23.264 175.889,21.602 176.423,19.938 L176.423,19.938 Z M176.689,18.05 L179.242,18.05 C181.446,21.068 183.654,24.082 185.836,27.115 C186.085,27.462 186.291,27.902 186.34,28.32 C186.57,30.262 186.738,32.211 186.928,34.158 C186.87,34.204 186.813,34.249 186.756,34.295 C186.349,33.678 185.874,33.095 185.549,32.437 C184.821,30.96 184.207,29.427 183.475,27.953 C181.822,24.628 179.625,21.679 177.141,18.933 C176.927,18.696 176.699,18.37 176.688,18.079 C176.688,18.07 176.689,18.059 176.689,18.05 L176.689,18.05 Z M182.19,18.05 C182.22,18.147 182.247,18.252 182.27,18.365 C182.394,19 182.506,19.639 182.623,20.276 C182.567,20.306 182.511,20.336 182.454,20.366 C181.811,19.597 181.169,18.827 180.52,18.05 L182.19,18.05 Z M184.791,18.05 C185.414,19.067 185.963,20.098 185.933,21.386 C185.904,22.601 186.038,23.82 186.101,25.037 C185.984,25.08 185.866,25.123 185.75,25.166 C185.24,24.161 184.632,23.192 184.244,22.141 C183.775,20.872 183.472,19.538 183.145,18.221 C183.132,18.17 183.123,18.112 183.117,18.05 L184.791,18.05 Z M188.933,18.05 C188.911,19.226 188.928,20.402 188.928,21.579 C188.85,21.602 188.772,21.625 188.693,21.648 C188.057,20.417 186.655,19.675 186.625,18.05 L188.933,18.05 Z M189.049,34.514 C188.951,34.524 188.853,34.535 188.756,34.546 C187.724,30.403 186.99,26.214 186.692,21.955 C186.763,21.927 186.834,21.9 186.905,21.872 C187.023,22.016 187.142,22.159 187.259,22.303 C188.8,24.181 189.207,26.425 189.228,28.749 C189.246,30.67 189.114,32.592 189.049,34.514 L189.049,34.514 Z M189.923,18.05 L191.482,18.05 C191.002,18.592 190.568,19.08 190.137,19.566 C190.067,19.548 189.995,19.531 189.925,19.514 C189.925,19.026 189.905,18.536 189.923,18.05 L189.923,18.05 Z M193.102,18.05 C193.386,19.427 193.743,20.796 193.905,22.186 C194.05,23.426 193.952,24.693 193.954,25.948 C193.955,26.129 193.968,26.332 193.896,26.489 C193.109,28.189 192.306,29.882 191.507,31.576 C191.415,31.571 191.324,31.564 191.232,31.558 C190.913,30.061 190.527,28.575 190.297,27.065 C190.087,25.674 189.996,24.257 189.958,22.85 C189.945,22.346 190.143,21.771 190.416,21.336 C191.12,20.212 191.906,19.139 192.666,18.05 L193.102,18.05 Z M196.131,18.05 C195.914,19.072 195.638,20.082 195.39,21.099 C195.321,21.096 195.253,21.093 195.185,21.091 C195.009,20.077 194.815,19.067 194.659,18.05 L196.131,18.05 Z M196.96,19.513 C197.679,21.446 198.102,23.239 198.062,25.101 C198.023,26.799 197.913,28.5 197.718,30.187 C197.651,30.772 197.239,31.318 196.973,31.877 C196.931,31.967 196.841,32.042 196.76,32.105 C194.45,33.868 193.15,36.239 192.579,39.047 C192.385,40.002 191.683,40.451 190.814,40.908 C190.775,40.611 190.728,40.392 190.722,40.171 C190.7,39.491 190.787,38.793 190.664,38.134 C190.358,36.482 190.855,35.069 191.672,33.67 C194.108,29.499 195.709,25.004 196.716,20.291 C196.758,20.095 196.835,19.907 196.96,19.513 L196.96,19.513 Z M198.96,18.05 C198.941,19.256 198.859,20.461 198.8,21.667 C198.707,21.672 198.613,21.677 198.519,21.682 C198.142,20.55 197.736,19.426 197.406,18.281 C197.388,18.214 197.377,18.134 197.376,18.05 L198.96,18.05 Z M202.767,18.151 C202.192,20.406 202.112,22.667 200.684,24.522 C200.183,25.174 199.83,25.941 199.369,26.723 C198.594,23.864 200.233,19.399 202.767,18.151 L202.767,18.151 Z M200.025,18.05 L201.32,18.05 C200.952,18.479 200.582,18.907 200.213,19.336 C200.121,19.308 200.031,19.28 199.939,19.252 C199.986,18.862 199.973,18.437 200.025,18.05 L200.025,18.05 Z M203.966,18.05 L205.307,18.05 C204.794,18.655 204.303,19.235 203.794,19.836 C203.708,19.076 203.766,18.479 203.966,18.05 L203.966,18.05 Z M207.164,18.05 C207.156,18.084 207.149,18.117 207.14,18.15 C206.726,19.762 206.308,21.373 205.887,22.984 C205.835,23.183 205.799,23.413 205.675,23.564 C203.833,25.836 201.873,27.997 199.48,29.975 C199.936,27.327 203.995,20.437 206.28,18.05 L207.164,18.05 Z M207.755,20.173 L207.755,20.765 C207.632,20.875 207.504,20.983 207.374,21.091 C207.501,20.787 207.626,20.481 207.755,20.173 L207.755,20.173 Z M209.42,45.258 L213.368,45.258 L213.368,17.502 L209.42,17.502 L209.42,45.258 Z M215.034,45.258 L218.88,45.258 L218.88,17.502 L215.034,17.502 L215.034,45.258 Z M220.545,45.258 L224.39,45.258 L224.39,17.502 L220.545,17.502 L220.545,45.258 Z M226.056,45.258 L229.901,45.258 L229.901,17.502 L226.056,17.502 L226.056,45.258 Z M231.567,45.258 L235.574,45.258 L235.574,17.502 L231.567,17.502 L231.567,45.258 Z M207.755,25.001 C207.447,25.161 207.109,25.323 206.809,25.517 C206.65,24.206 207.121,23.296 207.755,22.431 L207.755,25.001 Z M207.755,28.48 C207.383,28.241 207.043,28.009 206.727,27.748 C206.592,27.636 206.633,27.043 206.799,26.881 C207.091,26.592 207.409,26.328 207.755,26.055 L207.755,28.48 Z M207.755,32.081 C207.741,32.083 207.728,32.088 207.714,32.09 C207.728,32.003 207.741,31.917 207.755,31.832 L207.755,32.081 Z M207.755,37.036 C207.471,37.164 207.136,37.269 206.749,37.35 C207.103,36.752 207.433,36.194 207.755,35.65 L207.755,37.036 Z M207.755,41.126 C207.296,41.495 206.919,41.972 206.502,42.394 C205.512,43.395 204.205,43.544 202.804,42.737 C204.08,42.265 204.455,41.095 205.083,40.125 C205.222,39.91 205.392,39.687 205.6,39.549 C206.302,39.089 207.014,38.641 207.755,38.176 L207.755,41.126 Z M207.755,43.777 C207.586,43.724 207.399,43.648 207.196,43.549 C207.383,43.274 207.569,43.003 207.755,42.731 L207.755,43.777 Z M198.847,44.523 C199.066,44.345 199.286,44.186 199.523,44.061 C200.051,43.782 200.768,43.677 201.368,43.753 C202.882,43.944 204.378,44.263 205.883,44.523 L198.847,44.523 Z M194.804,38.084 C194.63,37.021 194.403,36.068 195.364,35.242 C196.129,34.585 196.782,33.796 197.537,33.012 C198.07,34.803 196.873,37.507 194.804,38.084 L194.804,38.084 Z M198.529,38.743 C200.234,38.876 201.958,38.854 203.629,40.003 C203.207,40.308 202.838,40.706 202.385,40.87 C201.437,41.217 200.445,41.443 199.467,41.711 C199.347,41.744 199.204,41.76 199.087,41.726 C197.893,41.371 196.701,41.004 195.316,40.582 C196.363,39.684 197.046,38.627 198.529,38.743 L198.529,38.743 Z M203.327,32.785 C202.914,33.741 201.675,34.388 200.723,35.049 C200.104,35.479 199.326,35.68 198.447,36.058 C198.5,35.633 198.525,35.415 198.556,35.199 C198.674,34.376 198.829,33.557 198.904,32.73 C198.96,32.088 199.147,31.584 199.744,31.25 C201.718,30.144 202.899,28.23 204.398,26.641 C204.679,26.343 204.948,26.034 205.223,25.73 C205.318,25.777 205.415,25.823 205.51,25.87 C204.808,28.187 204.279,30.577 203.327,32.785 L203.327,32.785 Z M207.584,33.606 C207.618,33.634 207.653,33.662 207.686,33.691 C206.717,35.133 205.756,36.579 204.772,38.009 C204.668,38.159 204.433,38.282 204.248,38.301 C203.007,38.428 201.81,38.272 200.665,37.683 C202.994,36.31 205.29,34.958 207.584,33.606 L207.584,33.606 Z M204.455,33.325 C204.938,31.844 205.353,30.503 205.834,29.185 C205.9,29.005 206.366,28.785 206.509,28.857 C206.807,29.008 207.259,29.401 207.214,29.59 C206.846,31.121 206.416,32.654 204.455,33.325 L204.455,33.325 Z M195.579,44.523 L191.244,44.523 C191.432,43.63 192.072,42.995 193.03,42.699 C194.58,42.221 196.104,42.194 197.868,42.888 C197.057,43.449 196.317,44.012 195.579,44.523 L195.579,44.523 Z M179.618,40.053 C179.642,39.983 179.663,39.912 179.687,39.841 C179.823,39.796 179.957,39.719 180.095,39.71 C181.214,39.642 182.333,39.563 183.453,39.542 C183.767,39.535 184.229,39.604 184.379,39.814 C185.191,40.944 185.93,42.127 186.682,43.299 C186.742,43.392 186.71,43.542 186.733,43.791 C184.376,42.37 182.438,40.398 179.618,40.053 L179.618,40.053 Z M179.601,44.523 C180.11,44.101 180.601,43.697 181.097,43.302 C181.187,43.231 181.486,43.274 181.569,43.368 C181.894,43.738 182.211,44.117 182.546,44.523 L179.601,44.523 Z M176.89,44.523 L172.597,44.523 C173.09,44.234 173.547,43.874 173.991,43.465 C174.694,42.817 175.496,42.26 176.309,41.748 C177.491,41.004 177.811,41.063 179.132,42.069 C178.369,42.906 177.629,43.72 176.89,44.523 L176.89,44.523 Z M172.082,39.768 C171.063,40.271 170.169,40.626 169.162,39.902 C168.9,39.714 168.38,39.778 168.016,39.873 C167.557,39.992 167.138,40.262 166.618,40.506 C167.184,38.866 169.869,38.533 172.082,39.768 L172.082,39.768 Z M172.019,35.746 C174.208,35.834 176.406,35.77 178.588,35.929 C179.67,36.008 180.649,36.577 181.524,37.51 C181.03,37.701 180.651,37.844 180.274,37.994 C178.338,38.762 176.362,39.33 174.248,39.213 C173.914,39.195 173.528,39.23 173.26,39.076 C172.19,38.464 171.038,38.355 169.847,38.352 C169.444,38.351 169.04,38.254 168.512,38.184 C169.497,36.928 170.264,35.676 172.019,35.746 L172.019,35.746 Z M174.601,34.071 C171.767,33.965 168.933,33.858 165.938,33.745 C166.616,32.985 167.141,32.461 168.146,32.438 C170.464,32.384 172.518,33.241 174.601,34.071 L174.601,34.071 Z M174.218,29.923 C175.682,29.187 177.101,28.896 178.486,30.168 C180.874,32.36 183.307,34.502 185.709,36.679 C185.883,36.836 185.961,37.098 186.083,37.311 C186.027,37.389 185.971,37.467 185.915,37.545 C185.4,37.397 184.857,37.311 184.376,37.091 C181.453,35.75 178.545,34.377 175.628,33.018 C174.494,32.49 174.374,31.29 173.874,30.345 C173.839,30.279 174.063,30 174.218,29.923 L174.218,29.923 Z M173.064,23.047 C175.117,23.729 175.732,25.507 176.535,27.178 C174.855,27.409 172.999,25.186 173.064,23.047 L173.064,23.047 Z M174.662,28.175 C174.673,28.266 174.685,28.358 174.696,28.449 C174.181,28.579 173.671,28.761 173.15,28.799 C173.019,28.809 172.855,28.351 172.707,28.108 C172.754,28.029 172.799,27.95 172.845,27.871 C173.451,27.973 174.057,28.074 174.662,28.175 L174.662,28.175 Z M165.551,44.523 C165.755,43.634 165.95,42.741 166.219,41.872 C166.401,41.284 168.186,40.618 168.751,40.931 C169.641,41.424 170.485,41.264 171.391,41.043 C172.219,40.842 173.076,40.753 173.926,40.658 C174.184,40.629 174.458,40.746 174.748,40.799 C172.934,43.014 170.463,43.746 168.025,44.523 L165.551,44.523 Z M131.025,50.942 L136.65,50.942 L136.65,48.846 L236.166,48.846 L236.166,50.942 L241.792,50.942 L241.792,12.507 L242.674,12.507 L242.674,11.625 L241.924,11.625 L241.211,11 L236.689,11 L235.976,11.625 L235.29,11.625 L235.29,12.507 L236.166,12.507 L236.166,13.914 L136.65,13.914 L136.65,12.507 L137.533,12.507 L137.533,11.625 L136.782,11.625 L136.069,11 L131.548,11 L130.834,11.625 L130.149,11.625 L130.149,12.507 L131.025,12.507 L131.025,50.942 Z M136.232,101.069 L135.702,101.087 L135.702,96.723 L136.232,96.74 C137.858,96.802 138.581,97.671 138.581,98.896 C138.581,100.155 137.847,101.007 136.232,101.069 L136.232,101.069 Z M136.47,96.497 L133.681,96.497 L133.681,96.689 C134.376,96.791 134.483,96.909 134.483,97.406 L134.483,103.739 C134.483,104.236 134.376,104.355 133.681,104.456 L133.681,104.648 L136.571,104.648 L136.571,104.456 C135.809,104.36 135.702,104.208 135.702,103.66 L135.702,101.312 L136.47,101.312 C138.361,101.312 139.89,100.505 139.89,98.829 C139.89,97.321 138.643,96.497 136.47,96.497 L136.47,96.497 Z M148.722,104.485 C147.023,104.485 145.962,102.757 145.962,100.488 C145.962,98.315 146.723,96.661 148.609,96.661 C150.302,96.661 151.363,98.383 151.363,100.652 C151.363,102.825 150.601,104.485 148.722,104.485 L148.722,104.485 Z M148.654,96.379 C146.204,96.379 144.607,98.253 144.607,100.573 C144.607,103.175 146.605,104.767 148.671,104.767 C151.115,104.767 152.718,102.887 152.718,100.567 C152.718,97.965 150.72,96.379 148.654,96.379 L148.654,96.379 Z M185.059,96.689 C185.719,96.791 185.826,96.892 185.826,97.372 L185.826,100.347 L181.751,100.347 L181.751,97.372 C181.751,96.898 181.87,96.791 182.518,96.695 L182.518,96.497 L179.73,96.497 L179.73,96.689 C180.424,96.791 180.532,96.909 180.532,97.406 L180.532,103.739 C180.532,104.236 180.424,104.355 179.73,104.456 L179.73,104.648 L182.518,104.648 L182.518,104.456 C181.87,104.355 181.751,104.253 181.751,103.773 L181.751,100.601 L185.826,100.601 L185.826,103.773 C185.826,104.253 185.719,104.355 185.059,104.456 L185.059,104.648 L187.847,104.648 L187.847,104.456 C187.164,104.355 187.046,104.236 187.046,103.739 L187.046,97.406 C187.046,96.904 187.164,96.791 187.847,96.689 L187.847,96.497 L185.059,96.497 L185.059,96.689 Z M172.632,104.485 C170.769,104.485 169.753,102.582 169.753,100.392 C169.753,98.134 170.825,96.661 172.632,96.661 C173.919,96.661 174.726,97.287 175.031,98.558 L175.206,98.558 L175.127,96.971 C174.709,96.633 173.829,96.379 172.576,96.379 C170.159,96.379 168.398,98.055 168.398,100.511 C168.398,103.118 170.193,104.767 172.576,104.767 C173.654,104.767 174.721,104.49 175.155,104.146 L175.234,102.554 L175.059,102.554 C174.715,103.965 173.84,104.485 172.632,104.485 L172.632,104.485 Z M160.047,100.691 L159.285,100.714 L159.285,96.723 L159.889,96.74 C161.509,96.796 162.136,97.649 162.136,98.783 C162.136,100.008 161.34,100.646 160.047,100.691 L160.047,100.691 Z M162.904,102.91 L161.724,100.697 C162.695,100.432 163.4,99.715 163.4,98.716 C163.395,97.338 162.288,96.497 160.126,96.497 L157.265,96.497 L157.265,96.689 C157.959,96.78 158.066,96.892 158.066,97.406 L158.066,103.739 C158.066,104.225 157.959,104.338 157.265,104.456 L157.265,104.648 L160.053,104.648 L160.053,104.456 C159.404,104.343 159.285,104.236 159.285,103.773 L159.285,100.94 L160.55,100.94 L162.542,104.648 L164.162,104.648 L164.162,104.468 C163.829,104.372 163.575,104.163 162.904,102.91 L162.904,102.91 Z M78.772,96.689 C79.539,96.785 79.652,96.994 79.67,97.959 L79.748,103.034 L74.9,96.497 L73.026,96.497 L73.026,96.689 C73.624,96.819 73.787,96.994 73.787,97.604 L73.759,103.186 C73.754,104.135 73.635,104.355 72.884,104.456 L72.884,104.648 L75.018,104.648 L75.018,104.456 C74.251,104.36 74.132,104.151 74.121,103.186 L74.047,97.4 L79.438,104.648 L80.003,104.648 L80.031,97.959 C80.036,97.011 80.155,96.791 80.906,96.689 L80.906,96.497 L78.772,96.497 L78.772,96.689 Z M202.869,104.485 C201.007,104.485 199.991,102.582 199.991,100.392 C199.991,98.134 201.063,96.661 202.869,96.661 C204.157,96.661 204.964,97.287 205.269,98.558 L205.444,98.558 L205.364,96.971 C204.947,96.633 204.066,96.379 202.813,96.379 C200.397,96.379 198.636,98.055 198.636,100.511 C198.636,103.118 200.431,104.767 202.813,104.767 C203.891,104.767 204.958,104.49 205.393,104.146 L205.472,102.554 L205.297,102.554 C204.953,103.965 204.078,104.485 202.869,104.485 L202.869,104.485 Z M66.882,96.689 C67.661,96.802 67.774,97.005 67.785,97.954 L67.819,101.51 C67.83,103.282 66.876,104.338 65.403,104.338 C63.997,104.338 62.987,103.446 62.987,101.459 L62.987,97.406 C62.987,96.909 63.094,96.791 63.783,96.689 L63.783,96.497 L61,96.497 L61,96.689 C61.649,96.791 61.767,96.892 61.767,97.372 L61.767,101.459 C61.767,103.847 63.326,104.767 64.979,104.767 C67.011,104.767 68.107,103.485 68.123,101.555 L68.157,97.948 C68.169,97.005 68.281,96.791 68.987,96.695 L68.987,96.497 L66.882,96.497 L66.882,96.689 Z M120.464,104.377 L118.98,104.423 L118.98,100.584 L120.572,100.601 C121.254,100.612 121.424,100.889 121.565,101.735 L121.734,101.735 L121.734,99.207 L121.565,99.207 C121.407,100.07 121.243,100.33 120.572,100.341 L118.98,100.358 L118.98,96.723 L120.329,96.762 C121.875,96.813 122.299,97.118 122.575,98.354 L122.756,98.354 L122.666,96.497 L116.959,96.497 L116.959,96.689 C117.653,96.791 117.76,96.909 117.76,97.406 L117.76,103.739 C117.76,104.236 117.653,104.355 116.959,104.456 L116.959,104.648 L122.97,104.648 L123.066,102.594 L122.886,102.594 C122.626,104.033 122.191,104.321 120.464,104.377 L120.464,104.377 Z M110.741,96.689 C111.52,96.802 111.633,97.005 111.645,97.954 L111.678,101.51 C111.69,103.282 110.736,104.338 109.263,104.338 C107.857,104.338 106.847,103.446 106.847,101.459 L106.847,97.406 C106.847,96.909 106.954,96.791 107.642,96.689 L107.642,96.497 L104.86,96.497 L104.86,96.689 C105.509,96.791 105.627,96.892 105.627,97.372 L105.627,101.459 C105.627,103.847 107.185,104.767 108.839,104.767 C110.871,104.767 111.967,103.485 111.983,101.555 L112.017,97.948 C112.029,97.005 112.142,96.791 112.847,96.695 L112.847,96.497 L110.741,96.497 L110.741,96.689 Z M85.04,96.689 C85.735,96.791 85.842,96.909 85.842,97.406 L85.842,103.739 C85.842,104.236 85.735,104.355 85.04,104.456 L85.04,104.648 L87.862,104.648 L87.862,104.456 C87.174,104.355 87.061,104.236 87.061,103.739 L87.061,97.406 C87.061,96.909 87.174,96.791 87.862,96.689 L87.862,96.497 L85.04,96.497 L85.04,96.689 Z M96.526,104.485 C94.827,104.485 93.766,102.757 93.766,100.488 C93.766,98.315 94.528,96.661 96.408,96.661 C98.107,96.661 99.173,98.383 99.1680175,100.652 C99.162,102.825 98.4,104.485 96.526,104.485 L96.526,104.485 Z M98.287,105.151 L97.604,104.62 C99.399,104.14 100.523,102.509 100.523,100.567 C100.523,97.965 98.525,96.379 96.458,96.379 C94.009,96.379 92.411,98.253 92.411,100.573 C92.411,103.034 94.201,104.592 96.142,104.756 L97.119,105.596 C98.135,106.483 98.626,106.669 99.242,106.669 C99.715,106.669 100.235,106.511 100.715,106.246 L100.715,106.071 C100.032,106.172 99.371,105.992 98.287,105.151 L98.287,105.151 Z M275.554,104.377 L274.069,104.423 L274.069,100.584 L275.661,100.601 C276.344,100.612 276.514,100.889 276.654,101.735 L276.824,101.735 L276.824,99.207 L276.654,99.207 C276.496,100.07 276.333,100.33 275.661,100.341 L274.069,100.358 L274.069,96.723 L275.418,96.762 C276.965,96.813 277.388,97.118 277.665,98.354 L277.846,98.354 L277.755,96.497 L272.049,96.497 L272.049,96.689 C272.743,96.791 272.85,96.909 272.85,97.406 L272.85,103.739 C272.85,104.236 272.743,104.355 272.049,104.456 L272.049,104.648 L278.06,104.648 L278.156,102.594 L277.975,102.594 C277.716,104.033 277.281,104.321 275.554,104.377 L275.554,104.377 Z M265.78,96.689 C266.548,96.785 266.661,96.994 266.678,97.959 L266.757,103.034 L261.908,96.497 L260.034,96.497 L260.034,96.689 C260.632,96.819 260.796,96.994 260.796,97.604 L260.768,103.186 C260.762,104.135 260.643,104.355 259.893,104.456 L259.893,104.648 L262.026,104.648 L262.026,104.456 C261.259,104.36 261.14,104.151 261.129,103.186 L261.056,97.4 L266.446,104.648 L267.011,104.648 L267.039,97.959 C267.045,97.011 267.163,96.791 267.914,96.689 L267.914,96.497 L265.78,96.497 L265.78,96.689 Z M251.565,104.485 C249.866,104.485 248.804,102.757 248.804,100.488 C248.804,98.315 249.566,96.661 251.452,96.661 C253.145,96.661 254.206,98.383 254.206,100.652 C254.206,102.825 253.444,104.485 251.565,104.485 L251.565,104.485 Z M251.497,96.379 C249.047,96.379 247.45,98.253 247.45,100.573 C247.45,103.175 249.448,104.767 251.514,104.767 C253.958,104.767 255.561,102.887 255.561,100.567 C255.561,97.965 253.563,96.379 251.497,96.379 L251.497,96.379 Z M288.201,96.689 C288.969,96.785 289.082,96.994 289.099,97.959 L289.178,103.034 L284.329,96.497 L282.455,96.497 L282.455,96.689 C283.053,96.819 283.217,96.994 283.217,97.604 L283.189,103.186 C283.183,104.135 283.064,104.355 282.314,104.456 L282.314,104.648 L284.447,104.648 L284.447,104.456 C283.68,104.36 283.561,104.151 283.55,103.186 L283.477,97.4 L288.867,104.648 L289.432,104.648 L289.46,97.959 C289.466,97.011 289.584,96.791 290.335,96.689 L290.335,96.497 L288.201,96.497 L288.201,96.689 Z M214.303,104.485 C212.604,104.485 211.543,102.757 211.543,100.488 C211.543,98.315 212.304,96.661 214.19,96.661 C215.883,96.661 216.944,98.383 216.944,100.652 C216.944,102.825 216.182,104.485 214.303,104.485 L214.303,104.485 Z M214.235,96.379 C211.785,96.379 210.188,98.253 210.188,100.573 C210.188,103.175 212.186,104.767 214.252,104.767 C216.696,104.767 218.299,102.887 218.299,100.567 C218.299,97.965 216.301,96.379 214.235,96.379 L214.235,96.379 Z M294.475,96.497 L294.39,98.354 L294.571,98.354 C294.819,97.09 295.237,96.813 296.902,96.734 L297.162,96.723 L297.162,103.66 C297.162,104.208 297.054,104.36 296.298,104.456 L296.298,104.648 L299.25,104.648 L299.25,104.456 C298.488,104.36 298.381,104.208 298.381,103.66 L298.381,96.723 L298.641,96.734 C300.306,96.813 300.729,97.09 300.972,98.354 L301.153,98.354 L301.068,96.497 L294.475,96.497 Z M308.951,100.008 L308.325,99.777 C307.32,99.404 306.727,98.924 306.727,98.072 C306.727,97.242 307.32,96.661 308.387,96.661 C309.403,96.661 310.153,97.231 310.408,98.354 L310.588,98.354 L310.515,96.853 C310.165,96.616 309.442,96.379 308.409,96.379 C306.913,96.379 305.711,97.152 305.711,98.546 C305.711,99.653 306.422,100.42 307.726,100.889 L308.364,101.12 C309.471,101.521 309.979,102.057 309.979,102.898 C309.979,103.864 309.262,104.485 308.172,104.485 C307.071,104.485 306.14,103.909 305.807,102.554 L305.626,102.554 L305.706,104.14 C306.23,104.507 307.122,104.767 308.155,104.767 C309.719,104.767 311,103.824 311,102.39 C311,101.273 310.317,100.505 308.951,100.008 L308.951,100.008 Z M231.488,103.739 L231.273,97.406 C231.262,96.915 231.38,96.785 232.03,96.689 L232.03,96.497 L230.037,96.497 L227.581,103.333 L224.957,96.497 L223.004,96.497 L223.004,96.689 C223.602,96.796 223.765,96.994 223.743,97.604 L223.545,103.248 C223.512,104.146 223.387,104.355 222.637,104.456 L222.637,104.648 L224.742,104.648 L224.742,104.456 C223.985,104.355 223.884,104.146 223.901,103.237 L224.014,97.361 L226.876,104.648 L227.327,104.648 L227.559,103.965 L230.065,97.389 L230.268,103.751 C230.285,104.259 230.161,104.372 229.501,104.456 L229.501,104.648 L232.278,104.648 L232.278,104.456 C231.595,104.366 231.504,104.253 231.488,103.739 L231.488,103.739 Z M239.075,101.069 L238.545,101.087 L238.545,96.723 L239.075,96.74 C240.701,96.802 241.424,97.671 241.424,98.896 C241.424,100.155 240.69,101.007 239.075,101.069 L239.075,101.069 Z M239.313,96.497 L236.524,96.497 L236.524,96.689 C237.219,96.791 237.326,96.909 237.326,97.406 L237.326,103.739 C237.326,104.236 237.219,104.355 236.524,104.456 L236.524,104.648 L239.414,104.648 L239.414,104.456 C238.652,104.36 238.545,104.208 238.545,103.66 L238.545,101.312 L239.313,101.312 C241.204,101.312 242.733,100.505 242.733,98.829 C242.733,97.321 241.486,96.497 239.313,96.497 L239.313,96.497 Z M83.314,66.109 L83.314,75.936 C83.314,78.034 83.099,78.141 81.177,78.33 L81.177,79.27 L88.329,79.27 L88.329,78.33 C86.407,78.141 86.178,78.034 86.178,75.936 L86.178,71.177 L93.559,71.177 L93.559,75.936 C93.559,78.034 93.344,78.141 91.273,78.33 L91.273,79.27 L98.6,79.27 L98.6,78.33 C96.651,78.141 96.422,78.034 96.422,75.936 L96.422,66.109 C96.422,64.012 96.624,63.85 98.627,63.716 L98.627,62.775 L91.475,62.775 L91.475,63.716 C93.344,63.85 93.559,64.012 93.559,66.109 L93.559,69.86 L86.178,69.86 L86.178,66.109 C86.178,64.012 86.407,63.85 88.248,63.716 L88.248,62.775 L81.097,62.775 L81.097,63.716 C83.099,63.85 83.314,64.012 83.314,66.109 L83.314,66.109 Z M130.616,65.007 C130.616,64.482 130.71,64.213 130.899,64.039 C131.033,63.877 131.45,63.797 132.001,63.797 C133.708,63.797 135.416,64.792 135.416,67.575 C135.416,70.787 133.426,71.567 132.216,71.567 C131.557,71.567 130.952,71.419 130.616,71.285 L130.616,65.007 Z M133.076,78.356 C130.844,78.195 130.616,78.06 130.616,75.936 L130.616,72.307 L132.377,72.777 C132.659,72.777 133.076,72.777 133.452,72.723 C136.047,72.414 138.52,70.814 138.52,67.453 C138.52,65.813 137.835,64.536 136.76,63.797 C135.711,63.058 134.34,62.775 132.404,62.775 L125.83,62.775 L125.83,63.716 C127.591,63.85 127.846,63.985 127.846,66.163 L127.846,75.936 C127.846,78.007 127.591,78.195 125.669,78.356 L125.669,79.27 L133.076,79.27 L133.076,78.356 Z M65.311,64.563 C65.661,64.106 66.131,63.85 68,63.85 L69.21,63.85 L69.21,75.909 C69.21,77.98 68.995,78.168 66.789,78.33 L66.789,79.27 L74.587,79.27 L74.587,78.33 C72.302,78.168 72.073,77.98 72.073,75.909 L72.073,63.85 L73.485,63.85 C75.057,63.85 75.514,64.012 75.959,64.509 C76.348,64.953 76.59,65.665 76.872,66.969 L77.827,66.875 C77.746,65.316 77.612,63.218 77.585,62.116 L76.899,62.116 C76.51,62.614 76.24,62.775 75.568,62.775 L65.768,62.775 C65.082,62.775 64.787,62.694 64.397,62.116 L63.738,62.116 C63.684,63.461 63.536,65.235 63.429,66.969 L64.423,66.969 C64.733,65.813 64.948,64.98 65.311,64.563 L65.311,64.563 Z M115.382,75.116 L114.414,74.941 C113.997,76.044 113.567,76.85 113.096,77.375 C112.544,78.007 111.712,78.168 110.233,78.168 C109.157,78.168 108.27,78.114 107.84,77.872 C107.369,77.617 107.195,77.039 107.195,75.856 L107.195,71.365 L109.157,71.365 C111.281,71.365 111.523,71.473 111.859,73.328 L112.814,73.328 L112.814,68.233 L111.859,68.233 C111.523,69.967 111.281,70.129 109.157,70.129 L107.195,70.129 L107.195,64.738 C107.195,63.904 107.289,63.85 108.163,63.85 L109.708,63.85 C111.241,63.85 111.94,64.079 112.263,64.536 C112.625,65.033 112.921,65.692 113.15,66.66 L114.144,66.526 C114.023,65.06 113.916,63.246 113.889,62.775 L102.274,62.775 L102.274,63.716 C104.116,63.85 104.357,63.985 104.357,66.136 L104.357,75.909 C104.357,78.007 104.116,78.141 101.965,78.33 L101.965,79.27 L114.494,79.27 C114.723,78.531 115.233,76.098 115.382,75.116 L115.382,75.116 Z M231.661,78.558 C229.148,78.558 227.91,75.882 227.48,74.336 L226.486,74.619 C226.674,76.138 226.983,78.087 227.225,78.746 C227.534,78.881 227.965,79.082 228.663,79.27 C229.349,79.458 230.169,79.633 231.137,79.633 C234.686,79.633 237.052,77.455 237.052,74.646 C237.052,71.97 234.995,70.626 232.656,69.47 C230.559,68.421 229.484,67.575 229.484,66.001 C229.484,64.617 230.452,63.461 232.078,63.461 C234.162,63.461 234.874,65.235 235.372,66.822 L236.34,66.633 C236.125,65.007 235.95,63.931 235.842,63.03 C235.157,62.802 233.893,62.398 232.482,62.398 C229.013,62.398 226.956,64.509 226.956,67.158 C226.956,69.766 229.04,71.124 231.244,72.226 C233.114,73.207 234.363,74.148 234.363,75.775 C234.363,77.455 233.315,78.558 231.661,78.558 L231.661,78.558 Z M215.606,63.716 L215.606,62.775 L208.453,62.775 L208.453,63.716 C210.322,63.85 210.537,64.012 210.537,66.109 L210.537,69.86 L203.157,69.86 L203.157,66.109 C203.157,64.012 203.385,63.85 205.227,63.716 L205.227,62.775 L198.075,62.775 L198.075,63.716 C200.078,63.85 200.293,64.012 200.293,66.109 L200.293,75.936 C200.293,78.034 200.078,78.141 198.155,78.33 L198.155,79.27 L205.308,79.27 L205.308,78.33 C203.385,78.141 203.157,78.034 203.157,75.936 L203.157,71.177 L210.537,71.177 L210.537,75.936 C210.537,78.034 210.322,78.141 208.251,78.33 L208.251,79.27 L215.578,79.27 L215.578,78.33 C213.629,78.141 213.4,78.034 213.4,75.936 L213.4,66.109 C213.4,64.012 213.602,63.85 215.606,63.716 L215.606,63.716 Z M189.064,63.528 C191.296,63.528 192.856,64.456 193.636,67.292 L194.59,67.104 C194.456,65.558 194.294,64.456 194.066,63.058 C193.353,62.882 191.619,62.398 189.67,62.398 C183.943,62.398 179.977,65.948 179.977,71.258 C179.977,75.304 182.679,79.633 189.038,79.633 C190.799,79.633 192.977,79.136 193.662,79.001 C194.066,78.087 194.684,76.218 195.034,75.036 L194.066,74.646 C192.802,77.2 191.458,78.477 189.253,78.477 C185.838,78.477 183.284,75.358 183.284,70.733 C183.284,66.929 185.368,63.528 189.064,63.528 L189.064,63.528 Z M155.409,71.54 C155.409,76.218 153.339,78.531 150.865,78.531 C147.611,78.531 145.528,74.982 145.528,70.518 C145.528,66.109 147.639,63.488 150.179,63.488 L150.206,63.488 C153.15,63.488 155.409,66.418 155.409,71.54 L155.409,71.54 Z M150.677,62.426 C145.245,62.426 142.221,66.66 142.221,71.097 C142.221,76.017 145.689,79.633 150.394,79.633 C154.992,79.633 158.743,76.353 158.743,70.841 C158.743,65.746 155.046,62.426 150.703,62.426 L150.677,62.426 Z M167.229,65.114 C167.229,64.482 167.283,64.213 167.485,64.079 C167.646,63.904 168.009,63.797 168.668,63.797 C170.294,63.797 172.002,64.765 172.002,67.399 C172.002,68.703 171.612,69.712 170.671,70.438 C170.093,70.922 169.3,71.124 168.197,71.124 L167.229,71.124 L167.229,65.114 Z M167.928,72.172 C168.91,72.172 169.326,72.468 169.743,73.18 C170.456,74.458 171.249,75.963 172.002,77.066 C173.037,78.692 174.032,79.351 176.626,79.458 C176.922,79.458 177.231,79.485 177.473,79.485 L177.607,78.638 C177.07,78.45 176.546,78.168 175.941,77.509 C175.39,76.958 174.919,76.272 174.032,74.888 C173.266,73.732 172.298,72.024 171.881,71.285 C173.682,70.518 175.054,69.255 175.054,67.023 C175.054,65.45 174.341,64.321 173.32,63.662 C172.324,63.003 171.088,62.775 169.084,62.775 L162.335,62.775 L162.335,63.716 C164.205,63.85 164.46,64.012 164.46,66.082 L164.46,75.909 C164.46,78.007 164.178,78.168 162.228,78.33 L162.228,79.27 L169.38,79.27 L169.38,78.33 C167.458,78.168 167.229,78.007 167.229,75.909 L167.229,72.172 L167.928,72.172 Z M241.087,62.116 L240.429,62.116 C240.374,63.461 240.227,65.235 240.119,66.969 L241.114,66.969 C241.423,65.813 241.638,64.98 242.002,64.563 C242.351,64.106 242.821,63.85 244.691,63.85 L245.9,63.85 L245.9,75.909 C245.9,77.98 245.685,78.168 243.48,78.33 L243.48,79.27 L251.278,79.27 L251.278,78.33 C248.993,78.168 248.763,77.98 248.763,75.909 L248.763,63.85 L250.176,63.85 C251.748,63.85 252.205,64.012 252.649,64.509 C253.039,64.953 253.28,65.665 253.563,66.969 L254.518,66.875 C254.437,65.316 254.302,63.218 254.276,62.116 L253.59,62.116 C253.2,62.614 252.931,62.775 252.259,62.775 L242.459,62.775 C241.773,62.775 241.477,62.694 241.087,62.116 L241.087,62.116 Z M265.571,63.488 L265.598,63.488 C268.541,63.488 270.8,66.418 270.8,71.54 C270.8,76.218 268.73,78.531 266.256,78.531 C263.003,78.531 260.919,74.982 260.919,70.518 C260.919,66.109 263.03,63.488 265.571,63.488 L265.571,63.488 Z M265.786,79.633 C270.383,79.633 274.134,76.353 274.134,70.841 C274.134,65.746 270.437,62.426 266.095,62.426 L266.068,62.426 C260.637,62.426 257.612,66.66 257.612,71.097 C257.612,76.017 261.081,79.633 265.786,79.633 L265.786,79.633 Z M308.731,75.116 L307.763,74.941 C307.347,76.044 306.916,76.85 306.446,77.375 C305.894,78.007 305.061,78.168 303.582,78.168 C302.507,78.168 301.62,78.114 301.19,77.872 C300.719,77.617 300.544,77.039 300.544,75.856 L300.544,71.365 L302.507,71.365 C304.631,71.365 304.873,71.473 305.209,73.328 L306.164,73.328 L306.164,68.233 L305.209,68.233 C304.873,69.967 304.631,70.129 302.507,70.129 L300.544,70.129 L300.544,64.738 C300.544,63.904 300.639,63.85 301.512,63.85 L303.058,63.85 C304.59,63.85 305.29,64.079 305.612,64.536 C305.975,65.033 306.271,65.692 306.5,66.66 L307.494,66.526 C307.373,65.06 307.266,63.246 307.239,62.775 L295.624,62.775 L295.624,63.716 C297.465,63.85 297.707,63.985 297.707,66.136 L297.707,75.909 C297.707,78.007 297.465,78.141 295.314,78.33 L295.314,79.27 L307.844,79.27 C308.073,78.531 308.583,76.098 308.731,75.116 L308.731,75.116 Z M282.62,65.114 C282.62,64.482 282.674,64.213 282.876,64.079 C283.037,63.904 283.401,63.797 284.059,63.797 C285.686,63.797 287.393,64.765 287.393,67.399 C287.393,68.703 287.003,69.712 286.062,70.438 C285.484,70.922 284.691,71.124 283.588,71.124 L282.62,71.124 L282.62,65.114 Z M284.771,78.33 C282.85,78.168 282.62,78.007 282.62,75.909 L282.62,72.172 L283.32,72.172 C284.301,72.172 284.718,72.468 285.135,73.18 C285.847,74.458 286.64,75.963 287.393,77.066 C288.428,78.692 289.423,79.351 292.018,79.458 C292.314,79.458 292.622,79.485 292.865,79.485 L292.999,78.638 C292.462,78.45 291.937,78.168 291.332,77.509 C290.781,76.958 290.311,76.272 289.423,74.888 C288.657,73.732 287.689,72.024 287.272,71.285 C289.073,70.518 290.445,69.255 290.445,67.023 C290.445,65.45 289.733,64.321 288.711,63.662 C287.716,63.003 286.479,62.775 284.476,62.775 L277.727,62.775 L277.727,63.716 C279.596,63.85 279.852,64.012 279.852,66.082 L279.852,75.909 C279.852,78.007 279.569,78.168 277.62,78.33 L277.62,79.27 L284.771,79.27 L284.771,78.33 Z" id="logo_white"></path>
            </g>
        </g>
    </g>
</svg>