<svg width="98" height="31" xmlns="http://www.w3.org/2000/svg"><path d="M13.163 0l2.98 4.511c-6.333 3.817-9.437 7.75-9.437 14.343.372-.115.745-.115 1.118-.115 3.352 0 6.581 2.082 6.581 5.9 0 3.932-2.732 6.361-6.581 6.361C2.856 31 0 27.299 0 20.59 0 11.336 4.595 4.627 13.163 0zm21.98 0L38 4.511c-6.21 3.817-9.438 7.75-9.438 14.343.373-.115.745-.115 1.118-.115 3.477 0 6.581 2.082 6.581 5.9C36.261 28.57 33.53 31 29.68 31c-4.968 0-7.824-3.701-7.824-10.41 0-9.254 4.595-15.963 13.288-20.59zm49.694 31l-2.98-4.511c6.333-3.817 9.437-7.75 9.437-14.343-.372.115-.745.115-1.118.115-3.352 0-6.581-2.082-6.581-5.9C83.595 2.43 86.327 0 90.176 0 95.144 0 98 3.701 98 10.41c0 9.254-4.595 15.963-13.163 20.59zm-21.98 0L60 26.489c6.21-3.817 9.438-7.75 9.438-14.343-.373.115-.745.115-1.118.115-3.477 0-6.581-2.082-6.581-5.9C61.739 2.43 64.47 0 68.32 0c4.968 0 7.824 3.701 7.824 10.41 0 9.254-4.595 15.963-13.288 20.59z" fill="#5C5240" fill-rule="evenodd"/></svg>