<?xml version="1.0" encoding="UTF-8"?>
<svg width="120px" height="120px" viewBox="0 0 120 120" version="1.1" xmlns="http://www.w3.org/2000/svg" xmlns:xlink="http://www.w3.org/1999/xlink">
    <!-- Generator: Sketch 52.4 (67378) - http://www.bohemiancoding.com/sketch -->
    <title>ico-products</title>
    <desc>Created with Sketch.</desc>
    <defs>
        <polygon id="path-1" points="0 0 115.121832 0 115.121832 109 0 109"></polygon>
    </defs>
    <g id="Page-1" stroke="none" stroke-width="1" fill="none" fill-rule="evenodd">
        <g id="ico-products" transform="translate(2.000000, 6.000000)">
            <g id="Group-3" transform="translate(0.913670, 0.000000)">
                <g id="Fill-1-Clipped">
                    <mask id="mask-2" fill="white">
                        <use xlink:href="#path-1"></use>
                    </mask>
                    <g id="path-1"></g>
                    <path d="M110.423198,96.2991244 C110.423198,100.73412 106.783923,104.3423 102.31013,104.3423 L12.8121725,104.3423 C8.33837883,104.3423 4.69863453,100.73412 4.69863453,96.2991244 L4.69863453,12.7007825 C4.69863453,8.26578675 8.33837883,4.65807308 12.8121725,4.65807308 L102.31013,4.65807308 C106.783923,4.65807308 110.423198,8.26578675 110.423198,12.7007825 L110.423198,96.2991244 Z M102.31013,-4.65811966e-05 L12.8121725,-4.65811966e-05 C5.7474222,-4.65811966e-05 -0.000234943474,5.69729957 -0.000234943474,12.7007825 L-0.000234943474,96.2991244 C-0.000234943474,103.302141 5.7474222,109.000419 12.8121725,109.000419 L102.31013,109.000419 C109.37488,109.000419 115.122067,103.302141 115.122067,96.2991244 L115.122067,12.7007825 C115.122067,5.69729957 109.37488,-4.65811966e-05 102.31013,-4.65811966e-05 Z" id="Fill-1" fill="#5C5240" fill-rule="nonzero" mask="url(#mask-2)"></path>
                </g>
            </g>
            <path d="M69.8649649,67.0641042 L59.033804,67.0641042 L59.033804,54.3680922 C59.033804,53.0715461 57.9844927,52.0209776 56.6894983,52.0209776 L41.0726717,52.0209776 C39.7781462,52.0209776 38.7283661,53.0715461 38.7283661,54.3680922 L38.7283661,67.0641042 L27.897674,67.0641042 L27.897674,45.140646 L69.8649649,45.140646 L69.8649649,67.0641042 Z M43.4169774,67.0641042 L54.3451926,67.0641042 L54.3451926,56.7152067 L43.4169774,56.7152067 L43.4169774,67.0641042 Z M33.1339151,24.6775624 L64.6287238,24.6775624 L74.6923592,40.4464169 L23.0702798,40.4464169 L33.1339151,24.6775624 Z M74.5535763,69.4112188 L74.5535763,45.140646 L78.9721236,45.140646 C79.828264,45.140646 80.6168884,44.6731008 81.0285485,43.9210853 C81.4397397,43.1690698 81.4087949,42.2522868 80.9474355,41.5293755 L67.8877776,21.0667614 C67.457363,20.3917313 66.7123427,19.9833333 65.9124656,19.9833333 L31.8497044,19.9833333 C31.0498273,19.9833333 30.3052759,20.3917313 29.8743925,21.0667614 L16.8147345,41.5293755 C16.3538441,42.2522868 16.3228992,43.1690698 16.7340904,43.9210853 C17.1457505,44.6731008 17.9339061,45.140646 18.7900465,45.140646 L23.2090627,45.140646 L23.2090627,69.4112188 C23.2090627,70.7072954 24.2583739,71.7583333 25.5533683,71.7583333 L72.2092706,71.7583333 C73.504265,71.7583333 74.5535763,70.7072954 74.5535763,69.4112188 Z" id="Fill-4" fill="#004646" fill-rule="nonzero"></path>
            <path d="M95.3253396,19.9833333 L88.3221433,19.9833333 C86.975806,19.9833333 85.8848926,21.0343712 85.8848926,22.3304479 C85.8848926,23.6265245 86.975806,24.6775624 88.3221433,24.6775624 L92.8880889,24.6775624 L92.8880889,67.0641042 L88.3221433,67.0641042 C86.975806,67.0641042 85.8848926,68.1146727 85.8848926,69.4112188 C85.8848926,70.7072954 86.975806,71.7583333 88.3221433,71.7583333 L95.3253396,71.7583333 C96.671677,71.7583333 97.7625904,70.7072954 97.7625904,69.4112188 L97.7625904,22.3304479 C97.7625904,21.0343712 96.671677,19.9833333 95.3253396,19.9833333" id="Fill-6" fill="#5C5240"></path>
            <path d="M49.7317267,80.8416667 L24.2754685,80.8416667 C22.9792284,80.8416667 21.928058,81.8580917 21.928058,83.1125 C21.928058,84.3669083 22.9792284,85.3833333 24.2754685,85.3833333 L49.7317267,85.3833333 C51.0279667,85.3833333 52.0791372,84.3669083 52.0791372,83.1125 C52.0791372,81.8580917 51.0279667,80.8416667 49.7317267,80.8416667" id="Fill-8" fill="#5C5240"></path>
            <path d="M49.7317267,90.8333333 L24.2754685,90.8333333 C22.9792284,90.8333333 21.928058,91.8497583 21.928058,93.1041667 C21.928058,94.358575 22.9792284,95.375 24.2754685,95.375 L49.7317267,95.375 C51.0279667,95.375 52.0791372,94.358575 52.0791372,93.1041667 C52.0791372,91.8497583 51.0279667,90.8333333 49.7317267,90.8333333" id="Fill-10" fill="#5C5240"></path>
            <path d="M92.6741727,80.8416667 L67.2179145,80.8416667 C65.9216745,80.8416667 64.8705041,81.8580917 64.8705041,83.1125 C64.8705041,84.3669083 65.9216745,85.3833333 67.2179145,85.3833333 L92.6741727,85.3833333 C93.9708823,85.3833333 95.0215832,84.3669083 95.0215832,83.1125 C95.0215832,81.8580917 93.9708823,80.8416667 92.6741727,80.8416667" id="Fill-12" fill="#5C5240"></path>
            <path d="M92.6741727,90.8333333 L67.2179145,90.8333333 C65.9216745,90.8333333 64.8705041,91.8497583 64.8705041,93.1041667 C64.8705041,94.358575 65.9216745,95.375 67.2179145,95.375 L92.6741727,95.375 C93.9708823,95.375 95.0215832,94.358575 95.0215832,93.1041667 C95.0215832,91.8497583 93.9708823,90.8333333 92.6741727,90.8333333" id="Fill-14" fill="#5C5240"></path>
        </g>
    </g>
</svg>