<?xml version="1.0" encoding="UTF-8"?>
<svg width="30px" height="27px" viewBox="0 0 30 27" version="1.1" xmlns="http://www.w3.org/2000/svg" xmlns:xlink="http://www.w3.org/1999/xlink">
    <!-- Generator: Sketch 52.4 (67378) - http://www.bohemiancoding.com/sketch -->
    <title>ico-cart</title>
    <desc>Created with Sketch.</desc>
    <g id="Page-1" stroke="none" stroke-width="1" fill="none" fill-rule="evenodd">
        <g id="shopping-cart-solid" fill="#5C5240">
            <path d="M27.50625,15.8898691 C27.3769271,16.4660977 26.8709896,16.875 26.2873438,16.875 L11.019375,16.875 L11.3602604,18.5625 L25.3403646,18.5625 C26.1425,18.5625 26.7370313,19.3166543 26.5592708,20.1086191 L26.2719271,21.3887988 C27.2454167,21.8672578 27.9166667,22.8776484 27.9166667,24.046875 C27.9166667,25.6778438 26.6108333,27 25,27 C23.3891667,27 22.0833333,25.6778438 22.0833333,24.046875 C22.0833333,23.2203164 22.4191146,22.4735449 22.9595312,21.9375 L12.0404167,21.9375 C12.5808854,22.4735449 12.9166667,23.2203164 12.9166667,24.046875 C12.9166667,25.6778438 11.6108333,27 10,27 C8.38916667,27 7.08333333,25.6778438 7.08333333,24.046875 C7.08333333,22.9511602 7.67317708,21.9955078 8.54848958,21.4858301 L4.88973958,3.375 L1.25,3.375 C0.559635417,3.375 0,2.80836914 0,2.109375 L0,1.265625 C0,0.566630859 0.559635417,0 1.25,0 L6.59005208,0 C7.18385417,0 7.69572917,0.422982422 7.8146875,1.01197266 L8.29208333,3.375 L28.7494792,3.375 C29.5516146,3.375 30.1461458,4.1291543 29.9683854,4.92111914 L27.50625,15.8898691 Z M8.81617358,6.07700754 L10.5105764,14.4236417 L25.5461167,14.4236417 L27.3938178,6.07700754 L8.81617358,6.07700754 Z" id="ico-cart"></path>
        </g>
    </g>
</svg>