<?xml version="1.0" encoding="UTF-8"?>
<svg width="120px" height="120px" viewBox="0 0 120 120" version="1.1" xmlns="http://www.w3.org/2000/svg" xmlns:xlink="http://www.w3.org/1999/xlink">
    <!-- Generator: Sketch 52.4 (67378) - http://www.bohemiancoding.com/sketch -->
    <title>ico-design</title>
    <desc>Created with Sketch.</desc>
    <defs>
        <polygon id="path-1" points="0.139393156 0.0397627119 72.1018576 0.0397627119 72.1018576 46.0544263 0.139393156 46.0544263"></polygon>
    </defs>
    <g id="Page-1" stroke="none" stroke-width="1" fill="none" fill-rule="evenodd">
        <g id="ico-design" transform="translate(5.000000, 5.000000)">
            <g id="Group-3" transform="translate(11.889091, 0.000000)">
                <g id="Fill-1-Clipped">
                    <mask id="mask-2" fill="white">
                        <use xlink:href="#path-1"></use>
                    </mask>
                    <g id="path-1"></g>
                    <path d="M2.30253959,17.1171127 L32.5935117,17.1171127 L32.5935117,43.8934093 C32.5935117,45.0867229 33.5617361,46.0544263 34.7566582,46.0544263 C35.9511476,46.0544263 36.9198046,45.0867229 36.9198046,43.8934093 L36.9198046,17.1171127 L59.352931,17.1171127 C59.9966834,17.1171127 60.6071233,16.8301297 61.0181211,16.3352568 L71.6041272,3.58007034 C72.36642,2.66120593 72.2387943,1.29890085 71.3194571,0.537358475 C70.3996872,-0.224616102 69.0360397,-0.0971161017 68.2733143,0.821316102 L58.3362522,12.7950788 L2.30253959,12.7950788 C1.10805013,12.7950788 0.139393156,13.7627822 0.139393156,14.9560958 C0.139393156,16.1494093 1.10805013,17.1171127 2.30253959,17.1171127" id="Fill-1" fill="#5C5240" mask="url(#mask-2)"></path>
                </g>
            </g>
            <path d="M107.579133,44.3676478 C108.775376,44.3676478 109.745455,43.406185 109.745455,42.2205668 C109.745455,41.0349487 108.775376,40.0734858 107.579133,40.0734858 L105.701365,40.0734858 L105.701365,28.8137637 L107.579133,28.8137637 C108.775376,28.8137637 109.745455,27.8523009 109.745455,26.6666827 C109.745455,25.4810646 108.775376,24.5196017 107.579133,24.5196017 L105.701365,24.5196017 L105.701365,15.7487759 C105.701365,14.5627284 104.731286,13.6016949 103.535043,13.6016949 L91.2402997,13.6016949 C90.0436234,13.6016949 89.0739778,14.5627284 89.0739778,15.7487759 C89.0739778,16.934394 90.0436234,17.8958569 91.2402997,17.8958569 L101.368721,17.8958569 L101.368721,24.5196017 L99.4913865,24.5196017 C98.2947103,24.5196017 97.3250646,25.4810646 97.3250646,26.6666827 C97.3250646,27.8523009 98.2947103,28.8137637 99.4913865,28.8137637 L101.368721,28.8137637 L101.368721,40.0734858 L99.4913865,40.0734858 C98.2947103,40.0734858 97.3250646,41.0349487 97.3250646,42.2205668 C97.3250646,43.406185 98.2947103,44.3676478 99.4913865,44.3676478 L101.368721,44.3676478 L101.368721,50.9913927 L54.2954128,50.9913927 C53.0987366,50.9913927 52.1290909,51.9528555 52.1290909,53.1384737 C52.1290909,54.3240918 53.0987366,55.2855546 54.2954128,55.2855546 L61.1942815,55.2855546 L61.1942815,66.0398539 C61.1942815,67.225472 62.1643605,68.1869349 63.3606034,68.1869349 C64.5568464,68.1869349 65.5269253,67.225472 65.5269253,66.0398539 L65.5269253,55.2855546 L101.368721,55.2855546 L101.368721,68.6184982 L99.4913865,68.6184982 C98.2947103,68.6184982 97.3250646,69.5795316 97.3250646,70.7655792 C97.3250646,71.9511973 98.2947103,72.9126602 99.4913865,72.9126602 L101.368721,72.9126602 L101.368721,84.1723823 L99.4913865,84.1723823 C98.2947103,84.1723823 97.3250646,85.1338451 97.3250646,86.3194633 C97.3250646,87.5050814 98.2947103,88.4665443 99.4913865,88.4665443 L101.368721,88.4665443 L101.368721,101.799058 L98.1400349,101.799058 C96.9437919,101.799058 95.973713,102.760521 95.973713,103.946139 C95.973713,105.131757 96.9437919,106.09322 98.1400349,106.09322 L103.535043,106.09322 C104.731286,106.09322 105.701365,105.131757 105.701365,103.946139 L105.701365,88.4665443 L107.579133,88.4665443 C108.775376,88.4665443 109.745455,87.5050814 109.745455,86.3194633 C109.745455,85.1338451 108.775376,84.1723823 107.579133,84.1723823 L105.701365,84.1723823 L105.701365,72.9126602 L107.579133,72.9126602 C108.775376,72.9126602 109.745455,71.9511973 109.745455,70.7655792 C109.745455,69.5795316 108.775376,68.6184982 107.579133,68.6184982 L105.701365,68.6184982 L105.701365,44.3676478 L107.579133,44.3676478 Z" id="Fill-4" fill="#5C5240"></path>
            <path d="M79.8257483,28.7585457 C78.9534126,27.8940441 77.5397196,27.8940441 76.6673839,28.7585457 L74.5354545,30.8724117 L72.4035251,28.7585457 C71.5311895,27.8940441 70.1174965,27.8940441 69.2451608,28.7585457 C68.3728252,29.6234903 68.3728252,31.0256482 69.2451608,31.8901499 L71.3766436,34.0040158 L69.2451608,36.1178818 C68.3728252,36.9828264 68.3728252,38.3849843 69.2451608,39.249486 C69.6811053,39.6821797 70.2523892,39.8983051 70.8241197,39.8983051 C71.3958501,39.8983051 71.967134,39.6821797 72.4035251,39.249486 L74.5354545,37.1360628 L76.6673839,39.249486 C77.1033284,39.6821797 77.6750589,39.8983051 78.2463428,39.8983051 C78.8180733,39.8983051 79.3893571,39.6821797 79.8257483,39.249486 C80.6980839,38.3849843 80.6980839,36.9828264 79.8257483,36.1178818 L77.6938188,34.0040158 L79.8257483,31.8901499 C80.6980839,31.0256482 80.6980839,29.6234903 79.8257483,28.7585457" id="Fill-6" fill="#5C5240"></path>
            <path d="M64.6418485,102.670238 L64.6418485,100.173265 C64.6418485,98.9778174 63.6739801,98.0083838 62.4804631,98.0083838 C61.2869461,98.0083838 60.3190778,98.9778174 60.3190778,100.173265 L60.3190778,102.670238 L49.5778571,102.670238 L49.5778571,100.173265 C49.5778571,98.9778174 48.6104211,98.0083838 47.4164718,98.0083838 C46.2229548,98.0083838 45.2550864,98.9778174 45.2550864,100.173265 L45.2550864,102.670238 L34.5138658,102.670238 L34.5138658,100.173265 C34.5138658,98.9778174 33.5459975,98.0083838 32.3524805,98.0083838 C31.1589635,98.0083838 30.1910951,98.9778174 30.1910951,100.173265 L30.1910951,102.670238 L19.4503068,102.670238 L19.4503068,100.173265 C19.4503068,98.9778174 18.4824384,98.0083838 17.2889214,98.0083838 C16.0949721,98.0083838 15.1275361,98.9778174 15.1275361,100.173265 L15.1275361,102.670238 L4.3227707,102.670238 L4.3227707,23.7135688 L83.1515203,102.670238 L64.6418485,102.670238 Z M89.7874056,103.193273 L3.68991707,16.9561097 C3.07176086,16.3369537 2.14193288,16.1516399 1.33400704,16.4871965 C0.526513471,16.8218871 0,17.6112026 0,18.4871134 L0,104.835119 C0,106.030566 0.967868359,107 2.16138535,107 L88.3699691,107 C88.3725628,106.999567 88.3755887,107 88.3786147,107 C89.5721316,107 90.54,106.030566 90.54,104.835119 C90.54,104.178294 90.248213,103.590313 89.7874056,103.193273 Z" id="Fill-8" fill="#004646" fill-rule="nonzero"></path>
            <path d="M18.0891338,59.9933185 L45.5732424,87.2499679 L18.0891338,87.2499679 L18.0891338,59.9933185 Z M15.9036578,91.5847458 L50.8494185,91.5847458 L50.8581604,91.5847458 C52.0649802,91.5847458 53.0436364,90.614189 53.0436364,89.4173569 C53.0436364,88.7602045 52.7485971,88.1711082 52.2826536,87.7736091 L17.4492264,53.2280307 C16.8237432,52.6081575 15.8844256,52.422629 15.0670576,52.7585743 C14.2505638,53.0936526 13.7181818,53.8838826 13.7181818,54.7608081 L13.7181818,89.4173569 C13.7181818,90.614189 14.696838,91.5847458 15.9036578,91.5847458 Z" id="Fill-10" fill="#004646" fill-rule="nonzero"></path>
        </g>
    </g>
</svg>