<?xml version="1.0" encoding="UTF-8"?>
<svg width="98px" height="31px" viewBox="0 0 98 31" version="1.1" xmlns="http://www.w3.org/2000/svg" xmlns:xlink="http://www.w3.org/1999/xlink">
    <!-- Generator: Sketch 52.4 (67378) - http://www.bohemiancoding.com/sketch -->
    <title>Group 7</title>
    <desc>Created with Sketch.</desc>
    <g id="Homepage" stroke="none" stroke-width="1" fill="none" fill-rule="evenodd">
        <g id="Desktop-HD-Copy" transform="translate(-1130.000000, -1771.000000)" fill="#5C5240">
            <g id="Testimonials" transform="translate(0.000000, 1667.000000)">
                <g id="Testimonial-Copy" transform="translate(997.000000, 30.000000)">
                    <g id="Group-7" transform="translate(133.000000, 74.000000)">
                        <path d="M13.1633987,0 L16.1437908,4.51119403 C9.81045752,8.32835821 6.70588235,12.261194 6.70588235,18.8544776 C7.07843137,18.738806 7.45098039,18.738806 7.82352941,18.738806 C11.1764706,18.738806 14.4052288,20.8208955 14.4052288,24.6380597 C14.4052288,28.5708955 11.6732026,31 7.82352941,31 C2.85620915,31 0,27.2985075 0,20.5895522 C0,11.3358209 4.59477124,4.62686567 13.1633987,0 Z M35.1437908,0 L38,4.51119403 C31.7908497,8.32835821 28.5620915,12.261194 28.5620915,18.8544776 C28.9346405,18.738806 29.3071895,18.738806 29.6797386,18.738806 C33.1568627,18.738806 36.2614379,20.8208955 36.2614379,24.6380597 C36.2614379,28.5708955 33.5294118,31 29.6797386,31 C24.7124183,31 21.8562092,27.2985075 21.8562092,20.5895522 C21.8562092,11.3358209 26.4509804,4.62686567 35.1437908,0 Z" id="“"></path>
                        <path d="M73.1633987,0 L76.1437908,4.51119403 C69.8104575,8.32835821 66.7058824,12.261194 66.7058824,18.8544776 C67.0784314,18.738806 67.4509804,18.738806 67.8235294,18.738806 C71.1764706,18.738806 74.4052288,20.8208955 74.4052288,24.6380597 C74.4052288,28.5708955 71.6732026,31 67.8235294,31 C62.8562092,31 60,27.2985075 60,20.5895522 C60,11.3358209 64.5947712,4.62686567 73.1633987,0 Z M95.1437908,0 L98,4.51119403 C91.7908497,8.32835821 88.5620915,12.261194 88.5620915,18.8544776 C88.9346405,18.738806 89.3071895,18.738806 89.6797386,18.738806 C93.1568627,18.738806 96.2614379,20.8208955 96.2614379,24.6380597 C96.2614379,28.5708955 93.5294118,31 89.6797386,31 C84.7124183,31 81.8562092,27.2985075 81.8562092,20.5895522 C81.8562092,11.3358209 86.4509804,4.62686567 95.1437908,0 Z" id="“-copy" transform="translate(79.000000, 15.500000) scale(-1, -1) translate(-79.000000, -15.500000) "></path>
                    </g>
                </g>
            </g>
        </g>
    </g>
</svg>